<svg width="1920" height="826" viewBox="0 0 1920 826" fill="none" xmlns="http://www.w3.org/2000/svg">
<g clip-path="url(#clip0_233_51)">
<path d="M72.709 236.811C65.9066 241.294 60.6979 249.809 59.3295 258.833L58.5575 263.68L131.651 475.686L204.745 687.691L208.56 691.67C213.238 696.674 221.954 700.694 228.652 700.93C233.676 701.03 238.256 699.553 394.849 645.564L555.901 590.037L559.879 586.222C564.884 581.545 568.904 572.829 569.139 566.13C569.331 561.076 567.511 555.798 496.676 350.344C425.841 144.89 424.022 139.612 420.756 135.75C416.442 130.62 407.905 126.233 401.081 125.633L395.596 125.081L235.392 180.112C147.314 210.478 74.1303 235.914 72.709 236.811ZM399.179 139.015C403.229 139.247 408.553 141.993 411.019 145.011C413.639 148.18 555.874 560.727 555.764 564.837C555.682 568.734 553.181 574.177 550.135 576.856C546.426 580.273 234.332 687.875 229.306 687.47C225.255 687.237 219.931 684.492 217.465 681.473C216.11 679.905 193.814 616.124 144.06 471.815C66.857 247.889 71.1014 261.086 74.3836 254.661C77.7567 248.204 69.0248 251.52 238.143 193.11C370.078 147.623 396.346 138.77 399.179 139.015Z" fill="white" fill-opacity="0.1"/>
<path d="M102.711 268.614C101.431 271.397 101.494 271.579 116.019 313.707L130.637 356.109L133.389 357.298L136.172 358.578L278.57 309.483L421.06 260.356L422.249 257.605C423.53 254.822 423.467 254.64 408.942 212.512L394.323 170.111L391.572 168.921L388.789 167.641L246.39 216.736L103.901 265.863L102.711 268.614ZM396.235 216.995L407.842 250.661L274.088 296.776L140.333 342.891L128.726 309.225L117.119 275.558L250.873 229.443L384.628 183.328L396.235 216.995Z" fill="white" fill-opacity="0.1"/>
<path d="M143.167 384.774L141.429 387.409L152.879 420.62L164.33 453.831L167.357 455.231L170.325 456.753L206.63 444.236C242.025 432.033 242.994 431.596 244.733 428.961L246.471 426.326L234.927 392.841L223.382 359.357L220.631 358.168C217.848 356.888 217.575 356.982 181.361 369.467C145.875 381.702 144.906 382.138 143.167 384.774ZM222.157 397.142L230.627 421.71L202.42 431.434L174.213 441.159L165.743 416.592L157.273 392.025L185.48 382.3L213.687 372.575L222.157 397.142Z" fill="white" fill-opacity="0.1"/>
<path d="M248.715 348.384L246.977 351.019L258.427 384.23L269.877 417.441L272.905 418.841L275.873 420.363L312.36 407.783L348.847 395.203L350.246 392.176L351.768 389.208L340.443 356.36L329.118 323.513L326.091 322.114L323.123 320.592L286.818 333.109C251.423 345.312 250.453 345.748 248.715 348.384ZM327.705 360.752L336.175 385.319L307.968 395.044L279.761 404.769L271.291 380.202L262.821 355.635L291.028 345.91L319.234 336.185L327.705 360.752Z" fill="white" fill-opacity="0.1"/>
<path d="M353.962 312.301C352.681 315.084 352.807 315.448 364.163 348.386L375.676 381.779L378.669 382.783C381.662 383.787 382.695 383.533 418.09 371.33L454.394 358.813L455.794 355.786L457.316 352.818L445.991 319.97L434.666 287.123L431.638 285.724L428.67 284.202L391.911 296.876L355.151 309.549L353.962 312.301ZM433.252 324.362L441.723 348.929L413.516 358.654L385.309 368.379L376.839 343.812L368.369 319.245L396.576 309.52L424.782 299.795L433.252 324.362Z" fill="white" fill-opacity="0.1"/>
<path d="M178.023 486.167L176.502 489.135L187.826 521.983L199.151 554.83L202.179 556.229L205.147 557.751L241.907 545.077L278.667 532.404L279.856 529.652C281.136 526.869 281.011 526.505 269.654 493.567L258.141 460.174L255.148 459.17C252.155 458.165 251.123 458.419 215.728 470.623L179.423 483.14L178.023 486.167ZM256.979 498.141L265.449 522.708L237.242 532.433L209.035 542.158L200.565 517.591L192.095 493.023L220.302 483.299L248.508 473.574L256.979 498.141Z" fill="white" fill-opacity="0.1"/>
<path d="M283.571 449.777L282.049 452.745L293.374 485.592L304.699 518.44L307.727 519.839L310.695 521.361L347.182 508.781L383.668 496.202L385.068 493.174L386.59 490.206L375.265 457.359L363.94 424.512L360.912 423.112L357.944 421.59L321.458 434.17L284.971 446.75L283.571 449.777ZM362.526 461.751L370.996 486.318L342.79 496.043L314.583 505.768L306.113 481.201L297.643 456.633L325.85 446.908L354.056 437.183L362.526 461.751Z" fill="white" fill-opacity="0.1"/>
<path d="M389.084 412.992L387.346 415.627L416.301 499.611L445.257 583.594L448.008 584.783C450.791 586.063 451.064 585.969 487.278 573.484C522.764 561.249 523.733 560.813 525.472 558.178L527.21 555.542L498.349 471.832L469.488 388.122L466.46 386.722L463.492 385.2L427.187 397.717C391.792 409.92 390.823 410.356 389.084 412.992ZM485.485 475.86L511.366 550.926L483.159 560.651L454.952 570.376L429.071 495.31L403.19 420.243L431.397 410.518L459.604 400.793L485.485 475.86Z" fill="white" fill-opacity="0.1"/>
<path d="M212.845 587.166L211.323 590.134L222.742 623.254L234.161 656.374L236.912 657.563C239.695 658.844 239.968 658.749 276.546 646.138L313.488 633.402L314.677 630.65C315.957 627.867 315.832 627.503 304.476 594.565L292.963 561.172L289.969 560.168C286.976 559.164 285.944 559.418 250.549 571.621L214.244 584.138L212.845 587.166ZM291.8 599.139L300.27 623.706L272.063 633.431L243.856 643.156L235.386 618.589L226.916 594.022L255.123 584.297L283.33 574.572L291.8 599.139Z" fill="white" fill-opacity="0.1"/>
<path d="M318.393 550.776L316.871 553.744L328.29 586.864L339.709 619.984L342.46 621.173C345.243 622.453 345.516 622.359 382.094 609.748L419.036 597.012L420.225 594.26C421.505 591.477 421.38 591.113 410.118 558.448L398.761 525.51L395.734 524.11L392.766 522.589L356.279 535.168L319.792 547.748L318.393 550.776ZM397.348 562.749L405.818 587.316L377.611 597.041L349.404 606.766L340.934 582.199L332.464 557.632L360.671 547.907L388.878 538.182L397.348 562.749Z" fill="white" fill-opacity="0.1"/>
</g>
<g clip-path="url(#clip1_233_51)">
<path d="M1588.9 207.177C1553.34 204.713 1522.88 212.175 1492.6 230.846C1464.63 248.02 1445.4 269.332 1430.94 299.366C1427.2 307.281 1425.7 311.838 1421.71 328.091C1416.45 350.082 1415.46 361.931 1417.4 381.239C1420.06 407.789 1426.88 426.83 1443.17 453.361C1449.7 464.142 1456 475.071 1457.02 477.67C1462.06 490.859 1463.33 504.786 1460.97 519.79C1460.23 524.629 1459.75 530.457 1459.92 532.75C1460.24 535.695 1458.98 542.666 1455.25 558.263C1452.45 569.985 1450.22 581.436 1450.24 583.49C1450.52 589.189 1454.06 597.512 1458.29 602.108L1461.95 606.057L1460.19 615.57C1458.65 623.703 1458.58 626.144 1460.02 632.121C1461.92 640.462 1465.96 646.654 1472.85 651.271C1477.35 654.293 1479.36 654.876 1503.46 660.332C1526.49 665.534 1529.73 666.105 1533.13 665.176C1540.89 663.14 1546.65 659.602 1551.28 653.949C1555.26 649.27 1556.3 647.061 1558.62 639.112L1561.35 629.831L1566.4 627.968C1572.25 625.782 1579.17 619.961 1582 615.003C1582.95 613.182 1586.14 601.963 1588.95 590.241C1592.68 574.643 1594.71 567.857 1596.33 565.377C1597.51 563.407 1599.73 557.997 1601.25 553.343C1605.94 538.895 1613.38 527.053 1623.82 517.669C1625.78 515.885 1636.27 508.869 1647.17 502.258C1668.44 489.115 1677.62 481.58 1690.48 466.324C1714.52 437.763 1728.12 399.741 1727.72 362.465C1727.1 302.095 1691.33 246.528 1636 220.081C1624.23 214.5 1600.58 208.024 1588.9 207.177ZM1620.22 236.382C1647.05 247.101 1670.11 266.75 1685.91 292.343C1715.68 340.844 1713.01 400.427 1679 446.678C1667.63 462.088 1656.4 471.794 1634.1 485.407C1622.71 492.312 1612.16 499.619 1608.47 503.04C1595.71 514.839 1586.99 528.627 1581.84 544.601C1578.86 554.03 1576.94 556.949 1573.03 557.859C1568.45 559.017 1487.66 539.691 1484.1 536.587C1481.03 534.009 1480.63 530.534 1482.25 520.781C1484.88 504.204 1483.31 488.057 1477.3 471.665C1475.58 466.85 1469.6 455.894 1462.43 444.346C1449.06 422.714 1443.57 409.723 1440.29 391.733C1436.4 370.318 1436.94 354.777 1442.16 332.98C1446.42 315.565 1450.95 304.767 1459.9 290.929C1478.88 261.67 1510.4 239.507 1544.24 231.624C1571.45 225.33 1596.67 226.958 1620.22 236.382ZM1567 592.059C1564.18 603.878 1562.87 606.332 1558.59 608.381C1556.38 609.49 1552.56 608.78 1515.94 600.021C1479.32 591.262 1475.58 590.165 1474.11 588.175C1471.22 584.411 1471.17 581.633 1474 569.814L1476.73 558.382L1523.24 569.505L1569.74 580.627L1567 592.059ZM1537.5 634.061C1535.94 640.552 1533.94 642.94 1529.26 644.075C1526.01 644.833 1486.68 635.425 1484.12 633.277C1480.46 630.149 1479.75 627.112 1481.31 620.621L1482.74 614.615L1510.84 621.335L1538.93 628.055L1537.5 634.061Z" fill="white" fill-opacity="0.1"/>
<path d="M1587.07 247.399C1575.91 246.063 1565.19 246.776 1552.11 249.688C1538.17 252.706 1528.6 256.766 1516.84 264.399C1506.52 271.149 1500.22 276.915 1491.77 287.39C1484.04 297.012 1478.95 306.342 1474.41 319.29C1471.41 327.584 1471.09 329.351 1471.75 332.581C1472.66 336.897 1475.47 339.719 1479.63 340.715C1486.51 342.361 1491.5 338.227 1493.77 328.733C1498.98 307.346 1518.19 285.309 1540.17 275.613C1554.24 269.454 1571.49 266.717 1584.43 268.687C1597.89 270.676 1599.6 270.779 1602.63 268.839C1611.39 263.459 1608.32 251.048 1597.66 248.909C1595.9 248.589 1591.15 247.864 1587.07 247.399Z" fill="white" fill-opacity="0.1"/>
</g>
<defs>
<clipPath id="clip0_233_51">
<rect width="492.778" height="492.778" fill="white" transform="translate(1 260.618) rotate(-19.0228)"/>
</clipPath>
<clipPath id="clip1_233_51">
<rect width="510.008" height="510.008" fill="white" transform="translate(1366.64 128) rotate(13.4517)"/>
</clipPath>
</defs>
</svg>
