<?xml version="1.0" standalone="no"?>
<!DOCTYPE svg PUBLIC "-//W3C//DTD SVG 20010904//EN"
 "http://www.w3.org/TR/2001/REC-SVG-20010904/DTD/svg10.dtd">
<svg version="1.0" xmlns="http://www.w3.org/2000/svg"
 width="512.000000pt" height="512.000000pt" viewBox="0 0 512.000000 512.000000"
 preserveAspectRatio="xMidYMid meet">

<g transform="translate(0.000000,512.000000) scale(0.100000,-0.100000)"
fill="#ffffff" stroke="none">
<path d="M2375 5054 c-16 -2 -73 -9 -125 -15 -603 -68 -1197 -389 -1597 -864
-249 -295 -447 -688 -527 -1048 -48 -213 -59 -317 -60 -557 -1 -289 25 -479
101 -730 237 -784 836 -1397 1618 -1655 263 -87 477 -120 780 -119 409 0 735
75 1091 249 760 372 1266 1080 1385 1935 18 124 18 496 0 620 -119 855 -626
1563 -1385 1935 -343 168 -660 243 -1051 250 -110 2 -213 1 -230 -1z m85 -750
l0 -546 -102 6 c-155 10 -312 26 -418 42 -160 24 -200 34 -200 50 0 29 93 272
150 392 141 294 324 502 510 579 30 12 56 23 58 23 1 0 2 -246 2 -546z m339
484 c83 -47 227 -195 305 -315 37 -56 93 -158 126 -225 57 -120 150 -363 150
-392 0 -28 -289 -71 -617 -92 l-103 -6 0 545 0 546 41 -14 c23 -8 67 -29 98
-47z m-799 -2 c0 -2 -20 -28 -45 -57 -139 -163 -269 -408 -370 -702 -26 -75
-51 -137 -55 -137 -3 0 -53 14 -111 31 -143 43 -304 106 -428 168 l-103 52 28
31 c68 72 258 226 367 299 191 126 386 220 597 285 108 34 120 37 120 30z
m1295 -48 c299 -98 603 -282 860 -521 l80 -74 -95 -48 c-127 -64 -288 -128
-428 -170 -63 -19 -118 -35 -122 -35 -4 0 -29 62 -55 137 -101 294 -231 539
-370 702 -25 29 -45 55 -45 57 0 7 46 -6 175 -48z m-2393 -827 c172 -83 287
-129 456 -180 70 -21 126 -43 125 -47 0 -5 -13 -65 -27 -134 -47 -232 -76
-473 -92 -767 l-7 -123 -548 0 -549 0 6 63 c35 404 160 775 367 1090 59 92
115 167 123 167 2 0 68 -31 146 -69z m3513 7 c249 -338 399 -745 439 -1195 l6
-63 -549 0 -549 0 -6 128 c-16 289 -62 644 -110 845 -10 43 -11 60 -2 63 6 2
65 20 130 39 158 48 348 124 471 189 55 29 106 54 113 55 6 0 32 -27 57 -61z
m-2582 -297 c131 -23 342 -46 515 -56 l112 -7 0 -449 0 -449 -450 0 -450 0 0
34 c0 145 43 565 75 734 36 186 46 223 64 218 9 -3 69 -14 134 -25z m1621 -43
c53 -240 85 -491 102 -800 l6 -118 -451 0 -451 0 0 449 0 449 113 7 c225 13
629 64 646 81 13 12 21 -3 35 -68z m-2090 -1240 c16 -294 44 -530 92 -767 14
-69 27 -130 27 -135 1 -4 -65 -29 -148 -55 -181 -57 -324 -114 -468 -188 -92
-47 -110 -53 -123 -42 -29 24 -172 248 -228 359 -140 273 -222 562 -250 888
l-6 62 549 0 548 0 7 -122z m1096 -328 l0 -450 -27 0 c-128 0 -543 -46 -680
-74 -37 -8 -69 -13 -71 -12 -9 10 -63 307 -81 446 -19 152 -41 424 -41 506 l0
34 450 0 450 0 0 -450z m1096 333 c-16 -280 -47 -533 -91 -747 -14 -66 -26
-120 -27 -121 -2 -2 -46 5 -98 15 -159 31 -525 70 -652 70 l-28 0 0 450 0 450
451 0 451 0 -6 -117z m1299 60 c-35 -353 -108 -615 -250 -893 -57 -110 -199
-335 -229 -359 -13 -11 -33 -4 -133 47 -144 73 -309 139 -469 187 -65 19 -124
37 -130 39 -9 3 -8 20 2 63 48 201 94 556 110 846 l6 127 549 0 549 0 -5 -57z
m-2395 -1588 l0 -545 -52 20 c-184 70 -377 286 -518 582 -57 120 -150 363
-150 392 0 16 40 26 200 50 125 20 345 40 468 44 l52 2 0 -545z m560 519 c229
-24 360 -50 360 -70 0 -29 -93 -272 -150 -392 -144 -301 -341 -520 -529 -587
l-41 -14 0 546 0 545 113 -7 c61 -3 173 -13 247 -21z m-1435 -241 c101 -294
231 -539 370 -702 25 -29 45 -55 45 -57 0 -20 -291 86 -445 161 -228 111 -396
228 -590 408 l-80 74 105 53 c58 29 146 69 195 88 90 35 320 111 341 112 6 0
33 -62 59 -137z m2113 107 c139 -41 308 -108 432 -170 l105 -53 -80 -74 c-233
-217 -474 -371 -751 -481 -108 -43 -275 -95 -282 -87 -3 2 15 26 40 54 135
150 286 440 387 744 18 53 36 97 41 97 4 0 53 -13 108 -30z"/>
</g>
</svg>
