<svg width="34" height="34" viewBox="0 0 34 34" fill="none" xmlns="http://www.w3.org/2000/svg">
<path d="M30.1765 4.0707C29.8453 4.08523 29.5229 4.1774 29.2322 4.29382C28.9445 4.40946 27.2878 5.11654 24.8414 6.16249C22.395 7.20844 19.2149 8.57049 16.0625 9.92109C9.75774 12.6223 3.56221 15.2801 3.56221 15.2801L3.60736 15.2628C3.60736 15.2628 3.23343 15.3878 2.85432 15.6519C2.66476 15.784 2.46083 15.9545 2.29385 16.2031C2.12687 16.4517 2.0048 16.804 2.0508 17.1766C2.21238 18.4855 3.56885 18.8567 3.56885 18.8567L3.57416 18.8594L9.62775 20.9312C9.7821 21.4461 11.4638 27.0592 11.8338 28.2479C12.0381 28.9051 12.2293 29.2842 12.4288 29.5428C12.5286 29.6722 12.6332 29.7724 12.7488 29.8456C12.7948 29.8747 12.8431 29.8966 12.891 29.916C12.892 29.9165 12.8926 29.9156 12.8936 29.916C12.8995 29.9186 12.905 29.9188 12.9109 29.9213L12.8949 29.9173C12.9061 29.9218 12.917 29.9294 12.9281 29.9333C12.9497 29.9408 12.963 29.9406 12.9906 29.9466C13.6839 30.1886 14.2576 29.7394 14.2576 29.7394L14.2815 29.7208L18.0003 26.2716L24.0353 30.9772L24.111 31.0117C25.1673 31.4807 26.1226 31.2191 26.6517 30.7886C27.1807 30.3581 27.3888 29.8031 27.3888 29.8031L27.4113 29.7447L31.846 6.63132C31.9594 6.11422 31.9755 5.66725 31.8685 5.26335C31.7615 4.85945 31.5015 4.50835 31.1753 4.31374C30.849 4.11914 30.5077 4.05617 30.1765 4.0707ZM30.2124 5.45327C30.3469 5.44704 30.4466 5.46242 30.478 5.48116C30.5094 5.49991 30.5235 5.49744 30.5537 5.61132C30.5839 5.7252 30.6002 5.96506 30.5178 6.34046L30.5152 6.34843L26.1058 29.3277C26.0954 29.3508 26.0035 29.5634 25.7937 29.7341C25.5797 29.9082 25.3416 30.0441 24.7099 29.7792L18.1105 24.6327L17.9246 24.4866L17.9206 24.4906L15.947 23.0098L27.0381 9.96093C27.1234 9.86092 27.1778 9.73837 27.1948 9.60809C27.2119 9.4778 27.1908 9.34537 27.1342 9.2268C27.0776 9.10823 26.9879 9.0086 26.8758 8.93995C26.7638 8.87131 26.6343 8.83659 26.5029 8.83999C26.3746 8.84333 26.2498 8.88293 26.143 8.95421L10.0939 19.6536L4.03104 17.5777C4.03104 17.5777 3.42899 17.2427 3.40018 17.0093C3.39858 16.9964 3.39147 17.0081 3.42275 16.9615C3.45404 16.9149 3.53268 16.8363 3.63127 16.7676C3.82845 16.6302 4.05361 16.5471 4.05361 16.5471L4.07619 16.5391L4.09877 16.5298C4.09877 16.5298 10.2946 13.8719 16.5991 11.1709C19.7513 9.82032 22.9309 8.45928 25.3767 7.41359C27.8218 6.36817 29.5886 5.61568 29.7382 5.55554C29.9085 5.48734 30.0779 5.4595 30.2124 5.45327ZM22.8572 12.7792L14.4462 22.6751L14.4422 22.6791C14.4291 22.6949 14.4167 22.7113 14.405 22.7282C14.3917 22.7466 14.3793 22.7657 14.3678 22.7853C14.3206 22.8655 14.2903 22.9546 14.2788 23.0469C14.2788 23.0487 14.2788 23.0505 14.2788 23.0523L13.1831 27.9796C13.1649 27.9264 13.1522 27.9069 13.1327 27.8441V27.8428C12.7847 26.7246 11.198 21.4309 10.9785 20.6988L22.8572 12.7792ZM15.3958 24.2967L16.9072 25.4309L14.6866 27.4895L15.3958 24.2967Z" fill="white"/>
</svg>
