<svg width="167" height="171" viewBox="0 0 167 171" fill="none" xmlns="http://www.w3.org/2000/svg">
<path d="M36.8437 37.9854C36.3457 38.8474 36.4198 40.1755 37.1325 43.5354C37.8491 46.8591 37.8535 47.1529 37.3471 47.7573C36.4267 48.7928 33.1469 52.2826 32.9257 52.4599C32.8252 52.5406 32.6489 53.1445 32.541 53.7927C32.2931 55.0488 32.7655 56.2556 33.6679 56.8864C33.9418 57.0631 35.991 57.4349 38.1808 57.6937L42.1621 58.1676L43.9855 61.4295C45.9743 65.0212 46.5668 65.6362 48.0199 65.7592C48.4748 65.7908 49.2674 65.5845 49.7581 65.2901C50.5423 64.8262 50.8355 64.3267 52.2482 61.1453L53.8536 57.545L57.7165 56.7592C61.1087 56.0868 61.68 55.8929 62.303 55.228C63.131 54.3656 63.3432 53.4356 63.0035 52.1883C62.761 51.3916 62.4345 51.0258 59.8758 48.7831L56.9988 46.2672L57.4244 42.2257C57.9178 37.7332 57.7437 36.9808 56.0039 36.1297C54.7151 35.5115 53.9949 35.7258 50.9946 37.5046C49.5829 38.3395 48.1149 39.1866 47.765 39.3682C47.2019 39.6547 46.6704 39.4863 43.807 38.1818C41.9746 37.3389 40.0901 36.637 39.599 36.6014C38.7094 36.522 37.2332 37.2765 36.8437 37.9854ZM43.8971 42.5367C47.4048 44.1502 47.4249 44.1341 50.7268 42.1134C54.0086 40.1089 53.8232 39.9602 53.3856 43.9454C53.0155 47.3147 53.0358 47.4636 53.7292 48.3281C54.1524 48.8146 55.3453 49.9722 56.401 50.8765C57.4527 51.817 58.2828 52.6048 58.2225 52.6532C58.1823 52.6854 56.5647 53.0578 54.6494 53.4708L51.1768 54.2077L49.7239 57.4214C48.9252 59.1853 48.1985 60.6272 48.1099 60.5991C48.0013 60.5872 47.2551 59.3686 46.4442 57.9046C45.6334 56.4405 44.7582 55.0611 44.4883 54.8481C44.2384 54.619 42.4952 54.2992 40.6637 54.1164C38.4135 53.906 37.3385 53.6779 37.4188 53.4484C37.5111 53.2752 38.3913 52.2719 39.3841 51.2443C42.1939 48.3629 42.1778 48.3428 41.364 44.5685C40.9753 42.7658 40.6997 41.2689 40.76 41.2205C40.8203 41.1721 42.2217 41.766 43.8971 42.5367Z" fill="#6B94AD" fill-opacity="0.35"/>
<path d="M56.6619 66.1949C54.5979 69.9649 54.0214 72.3765 54.6323 74.8269C55.1137 76.7864 56.0731 77.9001 61.8193 83.1695C76.346 96.4614 94.4683 114.071 104.802 124.978C109.252 129.701 109.57 129.975 110.443 130.034C111.989 130.149 112.868 128.485 112.037 127.037C111.807 126.627 110.38 124.435 108.864 122.216C102.795 113.208 93.8294 99.0231 86.795 87.2874C84.9356 84.1866 83.2094 81.3753 82.9675 81.0738C82.4192 80.3903 81.0788 80.243 80.3952 80.7913C79.7117 81.3395 79.4715 82.3582 79.8629 83.1345C80.4158 84.2768 90.0111 100.07 93.4795 105.548C95.3186 108.5 96.7746 110.933 96.7143 110.981C96.654 111.03 94.5626 109.04 92.0318 106.544C84.1329 98.6732 71.4795 86.687 61.7964 77.8687C58.3794 74.7618 58.0728 74.2148 58.3921 72.1416C58.6638 70.5031 60.2936 67.1805 61.2184 66.4387C62.0226 65.7937 66.1873 64.9311 67.8216 65.0739C68.6025 65.1413 69.3836 65.3738 69.561 65.5949C69.7384 65.8161 71.0049 67.9718 72.3885 70.3971C75.5269 75.875 75.7487 76.1927 76.9199 76.2113C78.051 76.2622 78.5335 75.8752 78.7293 74.7601C78.8692 73.9871 78.6472 73.5044 75.9526 68.8269C74.3351 66.0276 72.8507 63.5179 72.6411 63.2566C71.0286 61.2462 67.9127 60.739 63.4422 61.7147C59.4225 62.5932 58.216 63.3957 56.6619 66.1949Z" fill="#6B94AD" fill-opacity="0.35"/>
<path d="M89.203 40.6558C89.1394 41.2355 89.1886 41.9559 89.3379 42.2656C89.4872 42.5753 90.656 43.7854 91.9414 44.9348L94.2785 47.0248L93.836 50.3862C93.533 52.6445 93.5265 53.8721 93.7604 54.2462C94.7765 55.6777 95.8357 56.2157 97.0307 55.852C97.429 55.7307 98.885 54.9923 100.253 54.2258L102.738 52.7938L105.569 54.0581C108.944 55.547 109.194 55.6111 110.384 55.1186C111.153 54.7996 111.378 54.586 111.755 53.8208C112.153 53.0395 112.112 52.4116 111.561 49.7478C111.184 48.0015 110.905 46.5408 110.893 46.4845C110.901 46.412 111.777 45.4449 112.834 44.3327C113.911 43.2044 114.964 41.9634 115.169 41.6009C115.988 40.1509 115.33 38.3002 113.719 37.61C113.316 37.4374 111.714 37.1698 110.156 36.9987L107.31 36.7045L106.088 34.4803C104.385 31.2867 103.764 30.5952 102.545 30.3512C100.733 29.9872 100.098 30.5958 98.4681 34.0835L97.031 37.1523L94.0171 37.7196C90.3473 38.4165 89.3861 38.9893 89.203 40.6558ZM96.6457 41.1616C97.9736 40.9224 99.3013 40.5182 99.5828 40.2925C99.8844 40.0506 100.571 38.806 101.117 37.5093L102.104 35.1978L102.451 35.8775C102.649 36.2476 103.274 37.3979 103.875 38.4356L104.956 40.2776L107.834 40.612C109.428 40.7871 110.672 40.9787 110.632 41.011C109.659 41.8574 107.011 44.9398 106.951 45.3183C106.883 45.6041 107.098 46.9844 107.385 48.3726L107.928 50.9438L105.58 49.7876C104.259 49.1292 102.934 48.6721 102.544 48.7209C102.137 48.7496 100.898 49.3468 99.7602 50.0285L97.697 51.2869L97.9833 48.5134C98.2731 45.3736 98.2247 45.3132 95.5331 42.946C94.7635 42.2748 94.1509 41.6759 94.1911 41.6436C94.2313 41.6114 95.3379 41.3846 96.6457 41.1616Z" fill="#6B94AD" fill-opacity="0.35"/>
<path d="M77.1048 53.8286C75.9405 56.084 76.6167 59.2749 78.5465 60.7335C80.8268 62.5056 83.8252 62.4132 85.791 60.5392C89.6583 56.8756 86.9416 50.564 81.6412 50.9169C80.5143 50.9948 80.0557 51.1644 78.8976 52.0272C78.021 52.6642 77.3417 53.3413 77.1048 53.8286ZM82.1532 54.768C83.1113 54.8916 83.6393 55.4262 83.6887 56.3117C83.7184 57.5432 82.846 58.3091 81.7187 58.0569C80.6639 57.8128 80.4704 57.5715 80.4609 56.4888C80.4396 55.5148 81.2636 54.6887 82.1532 54.768Z" fill="#6B94AD" fill-opacity="0.35"/>
<path d="M37.8758 90.0181C37.4467 91.2543 37.814 92.083 39.3331 93.4414L40.6386 94.5748L40.4481 96.6438C40.2818 98.8256 40.5846 99.5738 41.8694 100.228C42.6668 100.646 43.3629 100.484 45.2131 99.4955L46.7295 98.7087L48.1552 99.4153C51.5342 101.033 53.3758 99.6219 52.6588 95.9682L52.2902 94.1495L53.3836 93.0412C54.7221 91.7032 55.1517 90.7971 54.9089 89.8355C54.5812 88.4795 54.0334 88.126 51.8475 87.8309L49.7703 87.5478L49.169 86.3451C47.9343 83.8995 46.891 83.2166 45.2858 83.8103C44.4611 84.1414 44.2963 84.3066 43.5296 85.9458L42.6947 87.7057L40.8719 88.1105C38.8037 88.58 38.2728 88.9067 37.8758 90.0181ZM44.3294 91.3502C45.1059 91.1238 45.3069 90.9626 45.6965 90.2537C45.9293 89.8026 46.1744 89.4078 46.2146 89.3756C46.2548 89.3433 46.6175 89.7132 47.0045 90.1957C47.456 90.7586 47.9837 91.1282 48.5192 91.2603C49.5378 91.5005 49.6184 91.6011 49.0957 92.0203C48.4725 92.5202 48.2199 93.3174 48.35 94.3034L48.4719 95.1968L47.4853 94.8317C46.7645 94.5509 46.2493 94.5677 45.477 94.9228L44.4754 95.3628L44.5466 94.3807C44.6261 93.6561 44.4726 93.2176 43.9566 92.5742C43.5857 92.1118 43.3196 91.6976 43.3598 91.6654C43.4 91.6331 43.8385 91.4796 44.3294 91.3502Z" fill="#6B94AD" fill-opacity="0.35"/>
<path d="M96.8411 61.9177C96.1507 63.3636 96.1281 64.571 96.6753 67.6011C98.7345 79.0654 104.108 94.7437 111.607 111.26C114.045 116.606 118.661 125.987 119.177 126.63C119.725 127.313 121.106 127.428 121.81 126.864C122.875 126.009 122.871 125.881 120.694 119.665C114.735 102.474 110.963 82.9017 110.204 65.2736C110.126 63.6517 109.927 62.6216 109.475 61.7286C108.854 60.542 108.721 60.4174 106.888 59.4095C103.618 57.6387 101.992 57.7535 98.6459 60.0076C97.6365 60.6851 97.2386 61.1364 96.8411 61.9177ZM102.846 61.9906C103.015 61.9542 103.865 62.2308 104.683 62.6322L106.233 63.3709L106.365 65.677C106.868 75.4488 108.092 85.3364 109.935 94.5954C110.507 97.5731 110.904 99.7984 110.787 99.5288C108.829 95.1522 104.632 83.2881 102.938 77.3455C101.673 72.8432 100.134 65.8177 100.104 64.4211C100.116 63.6523 100.2 63.5516 101.322 62.8498C101.99 62.4465 102.673 62.0633 102.846 61.9906Z" fill="#6B94AD" fill-opacity="0.35"/>
<path d="M52.9848 108.691C51.2098 111.832 51.9704 114.922 54.935 116.641C55.5714 117.023 57.3391 117.62 58.8368 118.005C72.0226 121.305 87.8376 128.541 100.088 136.853C104.338 139.722 105.618 139.917 106.11 137.771C106.354 136.717 106.016 136.294 102.035 132.649C89.5026 121.226 76.0314 111.845 65.5044 107.206C61.3081 105.351 59.3796 104.883 57.4442 105.312C55.7743 105.66 53.8562 107.1 52.9848 108.691ZM58.8575 108.969C60.8579 108.95 68.816 112.776 75.1563 116.809C78.6004 119.002 84.0186 122.75 84.325 123.132C84.3895 123.213 82.5814 122.483 80.3262 121.483C73.0854 118.305 66.1675 115.858 59.9067 114.272C56.9636 113.527 56.4239 113.267 56.0243 112.398C55.4472 111.143 57.2436 108.975 58.8575 108.969Z" fill="#6B94AD" fill-opacity="0.35"/>
<path d="M53.788 126.25C52.9078 127.254 52.4668 128.598 52.5853 130.023C52.6551 131.057 52.8649 131.484 53.7357 132.569C54.6225 133.675 54.9771 133.952 56.0078 134.249C58.9512 135.159 62.0841 133.175 62.5069 130.159C62.6503 129.02 62.1691 127.226 61.4596 126.341C60.6856 125.376 58.515 124.441 57.2955 124.527C56.0359 124.645 54.5838 125.348 53.788 126.25ZM58.0492 128.515C58.7016 128.751 58.8274 129.609 58.2888 130.173C57.5412 130.971 56.3291 130.489 56.4405 129.475C56.5081 128.859 57.4291 128.318 58.0492 128.515Z" fill="#6B94AD" fill-opacity="0.35"/>
<path d="M129.414 74.3133C128.587 75.6707 128.342 76.3955 127.506 80.0069C125.604 88.1397 125.035 99.3336 125.954 109.829C126.464 115.697 128.257 126.252 129.271 129.37C129.768 130.855 132.03 131.121 132.713 129.748C132.894 129.438 132.971 127.228 132.924 124.821C132.81 117.182 133.531 108.278 135 99.2364C135.444 96.5352 135.451 96.1327 134.947 95.5457C134.218 94.6772 133.26 94.5537 132.435 95.2148C131.752 95.7631 131.384 97.2809 130.106 105.244L129.715 107.804L129.612 106.07C129.064 96.3662 129.569 88.5934 131.282 80.8433C132.271 76.3503 133.11 75.0492 134.934 75.3044C136.089 75.468 136.863 76.268 136.872 77.3507C136.869 77.7169 136.601 78.8241 136.26 79.7583C135.245 82.6535 133.986 86.7686 133.863 87.5616C133.595 89.1639 135.569 90.389 136.815 89.3892C137.177 89.099 137.943 87.1298 139.094 83.4979C140.569 78.9116 140.813 77.8568 140.655 76.6294C140.415 74.8064 139.338 73.0932 137.84 72.2137C136.563 71.4868 134.252 71.1597 132.929 71.5276C131.754 71.8752 130.089 73.1774 129.414 74.3133Z" fill="#6B94AD" fill-opacity="0.35"/>
<path d="M61.908 140.287C61.2621 141.994 61.4858 143.797 62.5463 145.325C63.9536 147.368 65.0245 147.632 69.9907 147.151C81.5327 146.054 92.1916 146.821 103.284 149.487C106.428 150.236 107.374 150.303 108.094 149.759C108.616 149.34 108.715 147.774 108.231 147.171C107.731 146.548 102.222 143.963 98.2034 142.495C88.5833 138.945 78.1722 136.756 70.7462 136.766C66.6046 136.751 65.4417 136.99 63.7125 138.212C62.5785 139.022 62.2851 139.357 61.908 140.287ZM67.3543 140.775C69.4145 140.378 75.7341 140.76 80.0297 141.544C86.9501 142.799 87.5099 143.044 82.9494 142.836C78.7713 142.652 75.8654 142.736 71.7001 143.104C65.7319 143.695 65.6434 143.667 65.3841 142.355C65.2785 141.647 66.0023 141.066 67.3543 140.775Z" fill="#6B94AD" fill-opacity="0.35"/>
</svg>
