<svg width="70" height="154" viewBox="0 0 70 154" fill="none" xmlns="http://www.w3.org/2000/svg">
<path fill-rule="evenodd" clip-rule="evenodd" d="M69.0322 10.1297C69.0279 10.1241 69.0235 10.1185 69.0192 10.1128C63.1643 2.62599 54.1565 -1.04112 44.5986 0.257237C42.4874 0.536985 41.8734 0.770273 30.1895 5.71618C20.5666 9.77914 17.5972 11.1108 16.2076 12.0333C10.15 16.086 5.84048 22.9 4.96701 29.8186C4.62914 32.4323 4.61117 32.5293 3.4262 33.5129C0.977239 35.5734 -0.416401 39.4724 0.110912 42.7864C0.329713 44.2693 1.26289 46.517 6.6216 58.8868L12.8668 73.2565L14.4177 74.5852C16.2594 76.176 18.873 77.1386 20.9016 77.0132C22.1188 76.938 22.3701 77.0385 22.607 77.5915C22.7685 77.9685 23.4936 79.175 24.2223 80.3204C29.42 88.3565 37.9537 93.6249 47.2096 94.5382C49.1341 94.7252 49.3136 94.797 49.6474 95.5762C50.2181 96.9083 50.4044 99.7735 49.9948 101.317C49.2117 104.419 47.0283 106.961 44.1127 108.21C35.98 111.724 30.2951 120.049 29.8881 129.029C29.6504 134.098 29.898 135.093 33.8425 144.648L37.3276 153.06L38.4657 153.495C39.435 153.883 39.7043 153.887 40.4297 153.427C40.4708 153.4 40.511 153.374 40.55 153.349C40.8888 153.13 41.1482 152.963 41.303 152.727C41.8091 151.955 41.198 150.451 38.5895 144.03C38.4974 143.803 38.4027 143.57 38.3056 143.331C34.4724 133.966 34.336 133.37 34.5628 129.108C34.7897 124.638 36.3736 120.836 39.4726 117.307C41.2717 115.258 43.5985 113.606 47.182 111.833L49.5662 110.663L50.5678 111.335C55.3606 114.606 61.9488 115.889 67.6218 114.619L69.0322 114.3V109.348C66.7553 110.172 64.2854 110.55 61.7449 110.413C59.6194 110.313 55.1962 108.876 53.692 107.795L52.773 107.177L53.775 104.725C54.8813 101.961 55.1689 99.3684 54.6918 96.4494C54.412 94.7547 54.412 94.5464 54.9434 94.4675C59.2843 93.8903 65.2433 91.4186 69.0322 88.6492V82.4875C68.2411 83.2912 67.4462 84.0278 66.7465 84.592C64.1252 86.6669 57.9421 89.3157 54.6066 89.7927C46.5172 90.9082 38.7407 88.5877 32.7132 83.1976C28.9186 79.8256 28.5633 79.2045 23.0969 66.7916C19.5973 58.8312 18.1976 55.3555 17.968 54.2639C17.1535 50.002 18.8525 45.4963 22.2673 42.8435C23.5887 41.8312 25.402 40.9949 38.3211 35.4603C50.3246 30.2882 53.1971 29.1469 54.6333 28.8886C56.9348 28.4976 58.5074 28.6271 60.6184 29.3885C62.6936 30.1356 64.1763 31.1663 65.6876 32.9581C66.4789 33.8891 66.9588 34.7204 69.0322 39.477V29.6011C65.2606 25.3839 59.0635 23.2146 53.4814 24.325C50.6557 24.8811 22.4046 36.9839 20.0526 38.646C15.338 41.9449 12.8059 47.4917 13.1317 53.8073C13.2034 55.0855 13.6556 56.3493 16.7279 63.8681L20.2632 72.4676L18.9815 71.9756C18.2383 71.699 17.3552 71.0957 16.9675 70.6073C15.9982 69.3865 4.9076 43.498 4.6924 41.9541C4.36241 39.6562 5.42906 37.5631 7.61582 36.2099C9.09161 35.2802 9.36095 34.8673 9.35399 33.3234C9.40147 27.7404 11.8438 22.0535 15.8368 18.32C18.6377 15.6923 20.1925 14.8775 32.5012 9.72341L32.9292 9.54406C41.6648 5.88341 44.0837 4.86982 46.5636 4.68756C47.5132 4.61777 48.4717 4.66987 49.7973 4.74193C49.8656 4.74564 49.9349 4.74941 50.0051 4.75321C52.4717 4.88641 53.3909 5.0876 56.3097 6.27645C60.1153 7.79933 62.4416 9.47998 64.9258 12.4317C65.9221 13.6206 66.2923 14.1555 69.0322 20.314V10.1297Z" fill="#002947"/>
</svg>
