<svg width="107" height="184" viewBox="0 0 107 184" fill="none" xmlns="http://www.w3.org/2000/svg">
<g clip-path="url(#clip0_6_133)">
<path d="M54.1754 32.3676C48.1177 36.4203 43.8083 43.2343 42.9348 50.1529C42.5969 52.7666 42.579 52.8636 41.394 53.8472C38.945 55.9077 37.5514 59.8067 38.0787 63.1207C38.2975 64.6036 39.2307 66.8513 44.5894 79.2211L50.8346 93.5908L52.3855 94.9195C54.2271 96.5103 56.8408 97.4729 58.8694 97.3475C60.0866 97.2723 60.3379 97.3729 60.5748 97.9258C60.7363 98.3028 61.4614 99.5093 62.1901 100.655C67.3878 108.691 75.9215 113.959 85.1774 114.873C87.1019 115.059 87.2814 115.131 87.6152 115.91C88.1859 117.243 88.3721 120.108 87.9626 121.652C87.1795 124.754 84.9961 127.295 82.0805 128.544C73.9477 132.058 68.2629 140.384 67.8559 149.363C67.6182 154.433 67.8658 155.427 71.8103 164.982L75.2954 173.395L76.4335 173.829C77.4028 174.217 77.6721 174.221 78.3974 173.761C80.0025 172.717 80.0599 172.99 76.2734 163.665C72.4402 154.301 72.3038 153.705 72.5306 149.443C72.7575 144.973 74.3414 141.171 77.4404 137.642C79.2395 135.592 81.5663 133.941 85.1498 132.168L87.534 130.997L88.5356 131.669C93.3284 134.94 99.9166 136.223 105.59 134.953L107.353 134.555L109.75 139.804C112.105 144.953 112.184 145.068 113.031 145.449C114.273 145.988 115.63 145.406 116.097 144.135C116.406 143.259 116.378 143.123 114.274 137.866L112.128 132.509L113.658 131.497C116.527 129.583 120.261 125.247 121.077 122.845C121.461 121.728 120.768 120.389 119.602 120.026C118.291 119.606 117.393 120.08 116.503 121.681C113.127 127.619 106.685 131.122 99.7127 130.748C97.5872 130.647 93.164 129.21 91.6598 128.129L90.7408 127.512L91.7428 125.059C92.8491 122.295 93.1367 119.703 92.6596 116.784C92.3798 115.089 92.3798 114.881 92.9112 114.802C97.4424 114.199 103.737 111.533 107.486 108.618C111.823 105.272 115.389 100.472 117.437 95.252C119.441 90.1395 120.127 84.5206 119.335 79.0595L118.958 76.3056L114.052 64.575C110.581 56.3345 108.851 52.4351 108.198 51.4656C104.658 46.259 97.6716 43.4216 91.4492 44.6593C88.6235 45.2155 60.3724 57.3183 58.0204 58.9803C53.3058 62.2792 50.7737 67.826 51.0995 74.1416C51.1712 75.4198 51.6234 76.6837 54.6957 84.2024L58.231 92.802L56.9493 92.3099C56.2061 92.0333 55.323 91.43 54.9353 90.9417C53.966 89.7208 42.8754 63.8323 42.6602 62.2884C42.3302 59.9905 43.3969 57.8975 45.5836 56.5442C47.0594 55.6145 47.3287 55.2016 47.3218 53.6577C47.3693 48.0747 49.8116 42.3878 53.8046 38.6544C56.6055 36.0266 58.1603 35.2118 70.469 30.0577C83.1547 24.7421 82.9177 24.8139 87.9729 25.0875C90.4395 25.2207 91.3586 25.4219 94.2775 26.6108C98.0831 28.1336 100.409 29.8143 102.894 32.766C104.233 34.3639 104.441 34.7804 110.79 49.2543L117.337 64.1195L118.145 64.3386C119.398 64.6943 120.525 64.0625 120.931 62.788L121.24 61.7037L114.83 47.018C108.649 32.7991 108.387 32.2569 106.987 30.4472C101.132 22.9603 92.1243 19.2932 82.5664 20.5916C80.4552 20.8713 79.8412 21.1046 68.1573 26.0505C58.5344 30.1135 55.565 31.4451 54.1754 32.3676ZM92.6011 49.2229C94.9026 48.8319 96.4752 48.9614 98.5862 49.7228C100.661 50.47 102.144 51.5006 103.655 53.2924C104.675 54.4918 105.177 55.5259 109.237 65.0016C114.007 76.1361 114.577 77.8847 114.904 81.9096C115.337 87.6436 113.839 93.5209 110.672 98.4177C109.404 100.389 106.682 103.34 104.714 104.926C102.093 107.001 95.9099 109.65 92.5744 110.127C84.485 111.243 76.7085 108.922 70.681 103.532C66.8864 100.16 66.531 99.5388 61.0646 87.1259C57.5651 79.1655 56.1654 75.6898 55.9357 74.5983C55.1213 70.3363 56.8203 65.8306 60.2351 63.1778C61.5565 62.1655 63.3698 61.3292 76.2889 55.7946C88.2924 50.6226 91.1649 49.4812 92.6011 49.2229Z" fill="#002947"/>
</g>
<defs>
<clipPath id="clip0_6_133">
<rect width="140" height="140" fill="white" transform="translate(0 55.1302) rotate(-23.1903)"/>
</clipPath>
</defs>
</svg>
