<svg width="1920" height="826" viewBox="0 0 1920 826" fill="none" xmlns="http://www.w3.org/2000/svg">
<path d="M88.9116 176.762C68.6182 185.488 50.9896 202.039 39.9651 222.717C30.0752 241.219 25.8689 261.869 28.2378 282.062C28.8043 287.242 47.9848 358.252 85.8945 495.061C140.06 690.535 142.986 700.645 147.807 709.983C157.578 729.118 171.544 743.243 190.341 753.3C208.99 763.273 225.504 766.887 245.838 765.473C256.325 764.801 266.615 762.073 462.089 707.908C643.847 657.542 668.448 650.477 676.415 646.532C695.101 637.383 708.342 625.15 719.115 607.148C730.388 588.263 735.041 569.227 733.538 547.677C732.866 537.19 730.17 527.015 675.845 330.965C621.519 134.915 618.594 124.804 613.772 115.467C603.97 96.2164 590.183 82.2898 570.798 71.9C552.296 62.0102 534.648 58.3371 513.917 60.1102C505.056 60.828 480.789 67.3044 298.025 118.072C184.875 149.55 90.8071 175.989 88.9116 176.762ZM383.553 233.247C400.943 230.166 414.957 230.13 430 232.911C441.253 235.005 445.497 236.436 454.917 241.768C474.935 253.099 484.735 266.518 492.228 293.11C496.028 306.825 496.704 310.609 496.443 318.624C495.718 341.537 486.763 360.276 468.808 376.545L463.478 381.497L474.63 381.881C489.969 382.595 498.853 385.098 510.987 392.16C523.089 399.108 531.63 407.538 540.277 421.276C545.809 430.044 546.826 432.368 551.968 450.924C556.554 467.028 557.626 472.688 557.673 479.129C557.606 514.269 538.747 542.951 501.942 564.195C483.408 574.792 472.701 578.255 381.335 603.696L295.124 627.586L247.378 455.278L199.631 282.971L285.843 259.081C333.213 245.955 377.17 234.395 383.553 233.247Z" fill="white" fill-opacity="0.1"/>
<path d="M286.36 363.063L299.486 410.433L354.117 395.295C404.369 381.37 409.261 379.766 415.172 376.018C427.277 368.196 435.851 356.14 437.586 344.49C440.036 327.801 431.492 303.238 419.808 293.32C414.587 288.81 404.66 285.231 395.857 284.816C390.077 284.556 382.489 286.287 331.335 300.089L273.265 315.808L286.36 363.063Z" fill="white" fill-opacity="0.1"/>
<path d="M326.473 507.824L341.324 561.418L400.45 545.034C448.397 531.748 460.749 527.953 466.243 524.941C489.74 512.101 498.73 489.008 491.129 461.577C485.221 440.255 470.896 425.733 452.179 422.232C438.154 419.541 433.678 420.408 370.172 438.006L311.622 454.23L326.473 507.824Z" fill="white" fill-opacity="0.1"/>
<path d="M1583.59 111.222C1523.87 100.032 1488.9 103.243 1471.58 121.541C1461.58 132.042 1458.52 139.248 1447.16 179.585L1436.93 215.889L1509.3 236.276L1581.79 256.697L1578.86 265.732L1575.9 274.886L1466.58 244.731C1370.91 218.419 1356.46 214.731 1350.77 214.921C1310.95 216.254 1284.06 233.521 1263.21 271.184C1239.23 314.497 1228.49 349.888 1224.99 398.204C1221.24 450.161 1231.68 481.275 1258.96 499.459C1267.26 504.999 1269.21 505.804 1298.7 514.753L1329.62 524.103L1339.34 489.579C1344.69 470.597 1350.8 451.189 1352.95 446.288C1367.35 413.338 1399.46 391.649 1437.39 389.274L1447.82 388.626L1535.18 412.598L1622.55 436.57L1632.98 435.922C1658.69 434.202 1679.6 421.782 1694.01 399.719L1699.25 391.589L1721.81 311.508C1742.76 237.122 1744.38 230.919 1744.24 223.708C1743.34 191.441 1723.87 163.29 1690.77 146.668C1668.35 135.356 1610.83 116.336 1583.59 111.222ZM1536.22 147.562C1544.73 155.081 1547.64 165.635 1544.52 177.176C1542.65 183.82 1541.61 185.703 1537.12 189.817C1520.21 205.287 1493.88 196.462 1490.25 173.923C1485.99 148.137 1517.02 130.245 1536.22 147.562Z" fill="white" fill-opacity="0.1"/>
<path d="M1727.53 360.755C1714.37 405.196 1713.66 406.79 1699.53 422.402C1680.48 443.67 1653.37 455.368 1625.27 454.625C1615.74 454.373 1611.32 453.255 1535.27 431.831C1445.94 406.664 1444.36 406.348 1425.87 409.718C1405.78 413.28 1384.27 428.733 1373.71 447.142C1367.94 457.169 1325.11 609.653 1325.16 619.913C1325.41 640.855 1338.36 663.969 1360.02 682.106C1375.86 695.405 1403.69 711.183 1427.7 720.508C1464.95 735.1 1516.67 740.58 1552.85 733.996C1584.87 728.036 1603.03 715.863 1613.66 693.12C1615.43 689.135 1620.6 673.048 1625.08 657.151L1633.16 628.44L1560.79 608.053L1488.43 587.665L1490.93 578.767L1493.41 569.988L1608.35 601.985C1715.22 631.709 1723.71 633.845 1730.33 633.532C1755.72 632.49 1776.09 617.482 1800.28 582.041C1816.23 558.618 1823.07 544.794 1831.01 520.266C1838.19 497.958 1841.44 480.051 1843.75 451.378C1848.46 391.494 1838.71 360.191 1810.41 343.383C1806.23 340.926 1796.16 337.577 1771.84 330.726L1738.98 321.468L1727.53 360.755ZM1570.58 654.22C1581.85 664.693 1582.4 682.265 1571.64 694.088C1551.43 716.308 1516.49 696.222 1524.6 667.004C1527.67 656.089 1538.03 647.484 1549.34 646.443C1556.02 645.894 1565.2 649.246 1570.58 654.22Z" fill="white" fill-opacity="0.1"/>
</svg>
