<svg width="1920" height="826" viewBox="0 0 1920 826" fill="none" xmlns="http://www.w3.org/2000/svg">
<path d="M99.9116 176.762C79.6182 185.488 61.9896 202.039 50.9651 222.717C41.0752 241.219 36.8689 261.869 39.2378 282.062C39.8043 287.242 58.9848 358.252 96.8945 495.061C151.06 690.535 153.986 700.645 158.807 709.983C168.578 729.118 182.544 743.243 201.341 753.3C219.99 763.273 236.504 766.887 256.838 765.473C267.325 764.801 277.615 762.073 473.089 707.908C654.847 657.542 679.448 650.477 687.415 646.532C706.101 637.383 719.342 625.15 730.115 607.148C741.388 588.263 746.041 569.227 744.538 547.677C743.866 537.19 741.17 527.015 686.845 330.965C632.519 134.915 629.594 124.804 624.772 115.467C614.97 96.2164 601.183 82.2898 581.798 71.9C563.296 62.0102 545.648 58.3371 524.917 60.1102C516.056 60.828 491.789 67.3044 309.025 118.072C195.875 149.55 101.807 175.989 99.9116 176.762ZM394.553 233.247C411.943 230.166 425.957 230.13 441 232.911C452.253 235.005 456.497 236.436 465.917 241.768C485.935 253.099 495.735 266.518 503.228 293.11C507.028 306.825 507.704 310.609 507.443 318.624C506.718 341.537 497.763 360.276 479.808 376.545L474.478 381.497L485.63 381.881C500.969 382.595 509.853 385.098 521.987 392.16C534.089 399.108 542.63 407.538 551.277 421.276C556.809 430.044 557.826 432.368 562.968 450.924C567.554 467.028 568.626 472.688 568.673 479.129C568.606 514.269 549.747 542.951 512.942 564.195C494.408 574.792 483.701 578.255 392.335 603.696L306.124 627.586L258.378 455.278L210.631 282.971L296.843 259.081C344.213 245.955 388.17 234.395 394.553 233.247Z" fill="white" fill-opacity="0.1"/>
<path d="M297.36 363.063L310.486 410.433L365.117 395.295C415.369 381.37 420.261 379.766 426.172 376.018C438.277 368.196 446.851 356.14 448.586 344.49C451.036 327.801 442.492 303.238 430.808 293.32C425.587 288.81 415.66 285.231 406.857 284.816C401.077 284.556 393.489 286.287 342.335 300.089L284.265 315.808L297.36 363.063Z" fill="white" fill-opacity="0.1"/>
<path d="M337.473 507.824L352.324 561.418L411.45 545.034C459.397 531.748 471.749 527.953 477.243 524.941C500.74 512.101 509.73 489.008 502.129 461.577C496.221 440.255 481.896 425.733 463.179 422.232C449.154 419.541 444.678 420.408 381.172 438.006L322.622 454.23L337.473 507.824Z" fill="white" fill-opacity="0.1"/>
<path d="M1596.91 113.163C1539.62 102.428 1506.08 105.508 1489.46 123.062C1479.87 133.135 1476.94 140.049 1466.03 178.745L1456.22 213.572L1525.65 233.131L1595.19 252.721L1592.38 261.388L1589.54 270.17L1484.67 241.241C1392.89 215.999 1379.02 212.461 1373.56 212.644C1335.37 213.922 1309.57 230.487 1289.56 266.619C1266.56 308.17 1256.26 342.121 1252.9 388.472C1249.3 438.316 1259.32 468.165 1285.49 485.609C1293.45 490.923 1295.32 491.696 1323.61 500.281L1353.27 509.25L1362.6 476.131C1367.73 457.921 1373.59 439.302 1375.65 434.6C1389.47 402.991 1420.27 382.184 1456.66 379.906L1466.66 379.284L1550.48 402.281L1634.29 425.278L1644.29 424.656C1668.96 423.006 1689.02 411.091 1702.85 389.925L1707.87 382.127L1729.51 305.303C1749.61 233.942 1751.17 227.992 1751.03 221.073C1750.17 190.119 1731.49 163.112 1699.74 147.167C1678.23 136.315 1623.05 118.069 1596.91 113.163ZM1551.47 148.024C1559.63 155.238 1562.43 165.362 1559.43 176.434C1557.64 182.808 1556.64 184.614 1552.33 188.561C1536.11 203.401 1510.86 194.935 1507.37 173.314C1503.28 148.576 1533.05 131.412 1551.47 148.024Z" fill="white" fill-opacity="0.1"/>
<path d="M1735 352.547C1722.37 395.18 1721.7 396.709 1708.14 411.686C1689.86 432.089 1663.85 443.311 1636.9 442.599C1627.76 442.356 1623.51 441.284 1550.56 420.732C1464.86 396.588 1463.35 396.285 1445.61 399.518C1426.34 402.935 1405.7 417.76 1395.57 435.42C1390.03 445.039 1348.95 591.321 1349 601.164C1349.24 621.254 1361.66 643.427 1382.43 660.827C1397.64 673.586 1424.33 688.722 1447.36 697.667C1483.1 711.666 1532.72 716.923 1567.42 710.606C1598.15 704.889 1615.56 693.211 1625.76 671.393C1627.45 667.57 1632.42 652.138 1636.71 636.887L1644.47 609.344L1575.05 589.786L1505.62 570.228L1508.02 561.692L1510.4 553.269L1620.66 583.965C1723.19 612.48 1731.34 614.529 1737.69 614.229C1762.05 613.229 1781.58 598.831 1804.8 564.832C1820.09 542.361 1826.65 529.1 1834.27 505.569C1841.15 484.169 1844.27 466.99 1846.5 439.484C1851.01 382.035 1841.66 352.006 1814.5 335.88C1810.5 333.524 1800.84 330.311 1777.51 323.738L1745.98 314.857L1735 352.547ZM1584.44 634.076C1595.24 644.122 1595.77 660.979 1585.45 672.322C1566.06 693.638 1532.55 674.369 1540.32 646.339C1543.27 635.868 1553.21 627.613 1564.06 626.615C1570.47 626.088 1579.27 629.303 1584.44 634.076Z" fill="white" fill-opacity="0.1"/>
</svg>
