<svg width="60" height="60" viewBox="0 0 60 60" fill="none" xmlns="http://www.w3.org/2000/svg">
<path d="M27.5 7.5V20.3955C26.6325 20.043 24.7604 20 23.8379 20C16.8979 20 10.4736 23.265 10.4736 32.5C10.4736 43.55 19.175 45 25 45C27.3 45 32.5 44.7729 35 44.0479V7.5H27.5ZM40 7.5V15H47.5V7.5H40ZM40 20V41.7529C40 45.5429 37.695 49.4879 32.5 51.7529L39.6484 54.9902C46.9134 52.4902 47.5 44.2529 47.5 41.7529V20H40ZM24.9268 26.377C25.7268 26.377 26.625 26.5236 27.5 26.7236V38.4814C26.625 38.6814 25.7268 38.833 24.9268 38.833C21.6518 38.833 18.4766 37.8 18.4766 32.5C18.4766 27.2 21.6518 26.377 24.9268 26.377Z" fill="#2BA977"/>
</svg>
