<svg width="60" height="60" viewBox="0 0 60 60" fill="none" xmlns="http://www.w3.org/2000/svg">
<path d="M30.0587 6.24997C28.1149 6.25622 26.7674 6.42747 25.1387 6.70872C20.3287 7.54622 19.4524 9.30497 19.4524 12.5462V17.5H30.7024V20H19.0249H13.5874C10.2924 20 7.40869 21.5525 6.49494 25.2737C5.46244 29.545 5.41619 32.22 6.49494 36.68C7.31369 40.0062 9.11744 42.5 12.4137 42.5H16.9537V36.12C16.9537 32.4125 20.3112 28.75 24.1587 28.75H33.2037C36.3574 28.75 39.4537 26.4225 39.4537 23.2787V12.5462C39.4537 9.49747 37.2549 7.21747 34.1812 6.70622C34.2574 6.69872 31.9862 6.24247 30.0587 6.24997ZM23.8287 11.25C24.8549 11.25 25.7037 12.0962 25.7037 13.1275C25.7037 14.1687 24.8549 15 23.8287 15C22.7824 15 21.9537 14.17 21.9537 13.1275C21.9537 12.1 22.7824 11.25 23.8287 11.25Z" fill="url(#paint0_linear_128_2)"/>
<path d="M28.8476 53.75C30.7914 53.7438 32.1389 53.5725 33.7676 53.2912C38.5776 52.4537 39.4539 50.695 39.4539 47.4538V42.5H28.2039V40H39.8826H45.3201C48.6151 40 51.4989 38.4475 52.4126 34.7263C53.4451 30.455 53.4914 27.78 52.4126 23.32C51.5926 19.9938 49.7889 17.5 46.4926 17.5H41.9526V23.88C41.9526 27.5875 38.5951 31.25 34.7476 31.25H25.7026C22.5489 31.25 19.4526 33.5775 19.4526 36.7213V47.4538C19.4526 50.5025 21.6514 52.7825 24.7251 53.2937C24.6489 53.3012 26.9201 53.7575 28.8476 53.75ZM35.0789 48.75C34.0526 48.75 33.2039 47.9038 33.2039 46.8725C33.2039 45.8313 34.0526 45 35.0789 45C36.1251 45 36.9539 45.83 36.9539 46.8725C36.9539 47.9 36.1239 48.75 35.0789 48.75Z" fill="url(#paint1_linear_128_2)"/>
<defs>
<linearGradient id="paint0_linear_128_2" x1="13.0724" y1="16.215" x2="32.8924" y2="32.8462" gradientUnits="userSpaceOnUse">
<stop stop-color="#26ABE7"/>
<stop offset="1" stop-color="#086DBF"/>
</linearGradient>
<linearGradient id="paint1_linear_128_2" x1="44.1676" y1="47.3888" x2="29.3964" y2="26.2925" gradientUnits="userSpaceOnUse">
<stop stop-color="#FEB705"/>
<stop offset="1" stop-color="#FFDA1C"/>
</linearGradient>
</defs>
</svg>
