<svg width="493" height="320" viewBox="0 0 493 320" fill="none" xmlns="http://www.w3.org/2000/svg">
<path d="M254.058 165.454C246.126 166.938 238.77 171.993 234.864 178.653C233.381 181.166 233.32 181.257 231.686 181.741C228.295 182.771 225.177 186.131 224.269 189.733C223.845 191.338 223.814 194.032 223.875 208.957L223.966 226.304L224.965 228.332C226.146 230.754 228.386 232.873 230.505 233.63C231.776 234.084 231.988 234.296 231.988 234.962C231.988 235.416 232.2 236.96 232.442 238.443C234.229 248.888 240.616 257.97 249.638 262.935C251.515 263.964 251.666 264.115 251.666 265.054C251.666 266.658 250.606 269.655 249.517 271.048C247.367 273.863 244.037 275.498 240.525 275.498C230.717 275.528 221.302 281.522 216.973 290.483C214.521 295.539 214.339 296.659 214.188 308.103L214.066 318.184L215.035 319.122C215.853 319.939 216.125 320.061 217.063 319.909C219.152 319.546 219.092 319.849 219.304 308.708C219.485 297.507 219.606 296.841 221.695 292.603C223.875 288.152 227.145 284.974 231.837 282.733C234.562 281.432 237.649 280.766 242.069 280.523L245.006 280.372L245.732 281.492C249.184 286.911 255.329 291.089 261.656 292.27L263.624 292.633L263.775 299.021C263.927 305.287 263.957 305.438 264.653 306.195C265.683 307.285 267.317 307.285 268.347 306.195C269.043 305.438 269.073 305.287 269.225 299.021L269.376 292.633L271.374 292.27C275.128 291.573 280.819 288.788 282.696 286.699C283.574 285.73 283.453 284.065 282.424 283.188C281.273 282.188 280.153 282.279 278.549 283.521C272.524 288.092 264.441 288.849 257.509 285.428C255.39 284.398 251.515 281.008 250.455 279.252L249.789 278.223L251.878 276.164C254.209 273.833 255.632 271.32 256.419 268.142C256.873 266.295 256.964 266.083 257.539 266.234C262.413 267.597 269.981 267.627 275.067 266.295C280.94 264.781 286.662 261.451 291.021 257.031C295.29 252.702 298.438 247.283 300.013 241.38L300.83 238.413L300.951 224.336C301.012 214.437 300.951 209.714 300.709 208.442C299.377 201.601 293.504 195.667 286.632 194.214C283.514 193.548 249.486 193.548 246.368 194.214C240.132 195.516 235.137 200.057 232.715 206.626C232.23 207.958 232.14 209.441 231.988 218.433L231.837 228.726L230.747 227.666C230.111 227.061 229.476 226.062 229.294 225.396C228.84 223.73 228.84 192.549 229.294 190.884C229.96 188.401 231.958 186.736 234.773 186.313C236.681 186.01 237.135 185.707 237.801 184.133C240.283 178.472 245.248 173.749 250.939 171.69C254.936 170.237 256.873 170.086 271.646 170.207C286.874 170.328 286.602 170.298 291.627 172.78C294.079 173.991 294.927 174.597 297.379 177.079C300.588 180.288 302.223 183.013 303.464 187.1C304.13 189.31 304.16 189.824 304.312 207.322L304.493 225.305L305.22 225.88C306.34 226.788 307.763 226.637 308.731 225.517L309.519 224.548L309.397 206.808C309.307 189.643 309.276 188.977 308.641 186.524C305.946 176.353 298.378 168.693 288.085 165.848C285.814 165.212 285.088 165.182 271.041 165.121C259.477 165.061 255.874 165.121 254.058 165.454ZM285.814 199.36C288.327 199.966 289.871 200.783 291.688 202.479C293.474 204.144 294.533 205.839 295.29 208.321C295.805 209.986 295.865 211.258 295.865 222.671C295.865 236.082 295.684 238.11 294.261 242.349C292.202 248.373 288.115 253.701 282.757 257.304C280.607 258.757 276.551 260.573 273.856 261.33C270.284 262.299 262.837 262.299 259.234 261.33C250.516 258.938 243.613 253.187 239.829 245.073C237.438 239.987 237.347 239.2 237.195 224.185C237.104 214.558 237.195 210.41 237.438 209.199C238.467 204.507 242.16 200.662 246.792 199.451C248.578 198.997 250.788 198.937 266.349 198.937C280.819 198.906 284.24 198.997 285.814 199.36Z" fill="black"/>
<path d="M279.276 269.625C277.429 270.896 278.004 273.076 280.971 276.043C283.907 278.979 288.025 280.645 292.263 280.645C295.199 280.645 298.499 281.462 301.466 282.915C306.098 285.186 309.125 288.183 311.305 292.603C313.394 296.811 313.485 297.477 313.696 308.708C313.908 319.849 313.848 319.546 315.937 319.909C316.875 320.061 317.148 319.939 317.965 319.122L318.934 318.184L318.813 308.103C318.692 299.021 318.601 297.81 318.026 295.63C317.148 292.391 315.028 288.183 312.94 285.488C308.247 279.494 300.073 275.498 292.505 275.498C290.235 275.498 287.873 274.771 285.966 273.47C285.088 272.895 284.361 272.319 284.361 272.198C284.361 272.077 283.756 271.351 283.06 270.563C281.607 268.989 280.547 268.747 279.276 269.625Z" fill="black"/>
<path d="M130.9 155.912L130.865 155.655L131.61 155.343C132.188 155.089 132.43 154.619 132.336 153.932L131.668 149.037L126.237 140.962C126.035 140.639 125.854 140.401 125.693 140.248C125.55 140.093 125.341 139.973 125.067 139.888L124.571 139.719L124.536 139.462L131.44 138.52L131.475 138.777L131.036 139.021C130.68 139.227 130.503 139.47 130.506 139.749C130.507 140.012 130.62 140.329 130.846 140.7L134.806 147.035L137.251 139.564C137.351 139.27 137.364 138.98 137.289 138.693C137.232 138.403 137.026 138.239 136.671 138.2L136.293 138.12L136.258 137.862L139.349 137.441L139.384 137.698L138.919 137.945C138.609 138.11 138.392 138.315 138.268 138.559C138.142 138.786 138.024 139.074 137.914 139.421L135.396 147.322L136.226 153.401C136.273 153.745 136.371 154.02 136.522 154.227C136.688 154.414 136.939 154.529 137.277 154.57L138.104 154.667L138.139 154.925L130.9 155.912ZM146.39 154.193C145.084 154.371 143.915 154.259 142.88 153.858C141.843 153.44 140.991 152.769 140.323 151.845C139.671 150.92 139.255 149.787 139.072 148.447C138.889 147.108 139.006 145.911 139.422 144.857C139.855 143.801 140.516 142.941 141.405 142.277C142.311 141.611 143.374 141.195 144.594 141.029C145.813 140.862 146.94 140.98 147.974 141.381C149.006 141.765 149.864 142.409 150.547 143.313C151.247 144.215 151.69 145.344 151.875 146.701C152.06 148.057 151.955 149.27 151.558 150.339C151.176 151.388 150.542 152.253 149.655 152.934C148.783 153.595 147.695 154.015 146.39 154.193ZM146.319 153.678C146.92 153.596 147.378 153.358 147.692 152.966C148.005 152.573 148.18 151.928 148.215 151.031C148.267 150.132 148.184 148.883 147.966 147.286C147.746 145.672 147.49 144.438 147.199 143.586C146.925 142.731 146.584 142.157 146.177 141.862C145.769 141.568 145.265 141.462 144.664 141.544C144.063 141.626 143.597 141.864 143.266 142.26C142.952 142.652 142.769 143.298 142.717 144.198C142.682 145.095 142.774 146.35 142.995 147.965C143.212 149.562 143.458 150.788 143.732 151.643C144.024 152.495 144.373 153.068 144.781 153.363C145.205 153.655 145.718 153.76 146.319 153.678ZM158.472 152.544C157.802 152.636 157.166 152.591 156.565 152.411C155.98 152.228 155.486 151.876 155.082 151.354C154.693 150.812 154.443 150.068 154.331 149.121L153.505 142.49C153.451 142.094 153.344 141.82 153.183 141.667C153.022 141.515 152.791 141.424 152.49 141.395L152.167 141.334L152.132 141.076L156.62 139.545L156.913 139.768L157.283 143.444L158.13 149.652C158.205 150.202 158.415 150.584 158.759 150.8C159.12 151.013 159.541 151.086 160.022 151.021C160.503 150.955 160.923 150.828 161.282 150.639C161.641 150.45 161.991 150.192 162.331 149.866L161.289 141.454C161.235 141.059 161.137 140.792 160.996 140.654C160.852 140.499 160.613 140.409 160.277 140.385L160.009 140.343L159.974 140.085L164.348 138.491L164.641 138.714L165.063 142.382L166.015 149.364C166.067 149.741 166.158 150.026 166.289 150.218C166.421 150.41 166.667 150.552 167.029 150.642L167.298 150.684L167.333 150.942L162.86 151.815L162.42 150.326C161.917 150.867 161.353 151.347 160.727 151.764C160.117 152.163 159.365 152.423 158.472 152.544ZM177.797 149.908C176.801 150.044 175.921 149.875 175.157 149.402C174.409 148.927 173.963 148.157 173.818 147.092C173.708 146.285 174.019 145.49 174.752 144.708C175.483 143.908 176.709 143.216 178.431 142.631C178.699 142.542 179.001 142.449 179.338 142.35C179.672 142.235 180.023 142.117 180.391 141.997L180.114 139.961C179.955 138.794 179.697 137.998 179.342 137.574C179.002 137.131 178.531 136.95 177.93 137.032C177.518 137.088 177.21 137.27 177.007 137.578C176.802 137.868 176.709 138.344 176.73 139.006L176.717 139.297C176.783 140.04 176.677 140.605 176.397 140.993C176.118 141.381 175.738 141.608 175.257 141.674C174.81 141.735 174.422 141.648 174.093 141.413C173.763 141.178 173.567 140.828 173.504 140.365C173.408 139.661 173.567 139.035 173.982 138.489C174.415 137.94 175.018 137.49 175.793 137.14C176.567 136.789 177.427 136.549 178.371 136.421C179.9 136.212 181.128 136.429 182.055 137.073C182.997 137.696 183.583 138.85 183.813 140.533L184.59 146.226C184.695 146.999 185.109 147.336 185.83 147.238L186.397 147.16L186.657 147.335C186.387 147.791 186.069 148.158 185.705 148.436C185.357 148.71 184.832 148.896 184.127 148.992C183.372 149.095 182.747 149.005 182.254 148.723C181.775 148.421 181.427 147.987 181.21 147.422C180.77 148.042 180.302 148.587 179.806 149.057C179.326 149.507 178.656 149.791 177.797 149.908ZM179.154 148.122C179.498 148.075 179.805 147.955 180.076 147.76C180.361 147.546 180.687 147.239 181.052 146.84L180.462 142.512C180.295 142.57 180.128 142.627 179.961 142.685C179.794 142.743 179.601 142.804 179.382 142.869C178.62 143.183 178.033 143.622 177.62 144.185C177.222 144.73 177.079 145.414 177.191 146.238C177.288 146.942 177.523 147.452 177.899 147.769C178.272 148.068 178.69 148.185 179.154 148.122ZM187.394 148.205L187.359 147.947L187.654 147.802C188.244 147.512 188.495 147.04 188.406 146.388L186.525 132.605C186.478 132.262 186.375 132.014 186.214 131.861C186.051 131.69 185.791 131.586 185.436 131.547L185.091 131.515L185.056 131.258L189.619 129.507L189.96 129.696L190.349 133.317L191.551 142.127C191.637 142.763 191.724 143.398 191.811 144.034C191.912 144.65 192.005 145.267 192.09 145.885C192.136 146.229 192.244 146.503 192.412 146.707C192.577 146.894 192.83 147.017 193.17 147.076L193.516 147.107L193.551 147.365L187.394 148.205ZM199.197 146.988C198.356 147.103 197.586 147.103 196.888 146.989C196.193 146.891 195.542 146.735 194.935 146.52L194.542 143.451L194.8 143.416L195.887 144.842C196.358 145.478 196.841 145.937 197.334 146.219C197.842 146.482 198.449 146.566 199.153 146.47C199.977 146.357 200.614 146.087 201.063 145.658C201.526 145.21 201.716 144.677 201.632 144.058C201.554 143.492 201.311 143.053 200.901 142.741C200.491 142.43 199.777 142.195 198.758 142.036L197.63 141.849C196.54 141.683 195.65 141.314 194.96 140.744C194.27 140.173 193.861 139.416 193.732 138.471C193.577 137.337 193.893 136.315 194.678 135.403C195.463 134.491 196.689 133.922 198.355 133.694C199.024 133.603 199.662 133.595 200.267 133.67C200.887 133.725 201.491 133.861 202.081 134.078L202.306 136.881L202.048 136.917L200.929 135.442C200.525 134.92 200.145 134.57 199.788 134.391C199.446 134.193 198.957 134.137 198.322 134.224C197.738 134.303 197.211 134.541 196.74 134.938C196.269 135.335 196.075 135.833 196.157 136.434C196.236 137.018 196.514 137.453 196.991 137.738C197.484 138.02 198.18 138.249 199.079 138.424L200.283 138.601C201.572 138.81 202.528 139.213 203.151 139.81C203.773 140.39 204.147 141.144 204.273 142.071C204.444 143.325 204.083 144.397 203.19 145.289C202.314 146.178 200.983 146.745 199.197 146.988ZM212.479 145.176C211.173 145.355 210.003 145.243 208.969 144.842C207.932 144.423 207.08 143.752 206.412 142.829C205.76 141.903 205.343 140.77 205.161 139.431C204.978 138.091 205.095 136.895 205.511 135.841C205.944 134.784 206.605 133.924 207.494 133.261C208.4 132.595 209.463 132.179 210.683 132.012C211.902 131.846 213.029 131.963 214.063 132.365C215.095 132.749 215.953 133.393 216.636 134.297C217.336 135.198 217.779 136.327 217.964 137.684C218.149 139.041 218.044 140.254 217.647 141.322C217.265 142.372 216.631 143.237 215.744 143.917C214.872 144.579 213.784 144.998 212.479 145.176ZM212.408 144.661C213.009 144.579 213.467 144.342 213.781 143.949C214.094 143.556 214.269 142.912 214.304 142.015C214.356 141.115 214.273 139.867 214.055 138.27C213.835 136.656 213.579 135.422 213.288 134.57C213.014 133.715 212.673 133.14 212.266 132.846C211.858 132.552 211.354 132.446 210.753 132.528C210.152 132.61 209.686 132.848 209.355 133.243C209.041 133.636 208.858 134.282 208.806 135.181C208.771 136.078 208.863 137.334 209.083 138.948C209.301 140.545 209.547 141.771 209.821 142.626C210.113 143.479 210.462 144.052 210.87 144.346C211.294 144.638 211.807 144.743 212.408 144.661ZM231.998 142.513C230.83 142.673 229.731 142.569 228.701 142.202C227.687 141.816 226.83 141.18 226.132 140.296C225.449 139.392 225.011 138.236 224.819 136.828C224.63 135.437 224.768 134.211 225.236 133.15C225.718 132.069 226.431 131.202 227.374 130.549C228.332 129.876 229.42 129.456 230.64 129.29C231.636 129.154 232.5 129.202 233.231 129.435C233.963 129.667 234.545 130.025 234.978 130.508C235.409 130.974 235.663 131.491 235.741 132.058C235.806 132.538 235.712 132.936 235.457 133.251C235.201 133.548 234.84 133.729 234.377 133.792C233.879 133.86 233.45 133.735 233.092 133.416C232.734 133.098 232.489 132.65 232.358 132.073C232.289 131.697 232.254 131.379 232.254 131.116C232.25 130.837 232.213 130.562 232.141 130.292C232.033 130.009 231.895 129.836 231.729 129.771C231.577 129.687 231.373 129.662 231.115 129.697C230.068 129.84 229.314 130.406 228.854 131.396C228.412 132.384 228.326 133.874 228.598 135.866C228.835 137.601 229.334 138.888 230.096 139.729C230.873 140.55 231.931 140.869 233.271 140.687C234.078 140.577 234.71 140.342 235.169 139.982C235.627 139.622 236.048 139.118 236.432 138.471L236.718 138.642C236.427 139.714 235.872 140.585 235.054 141.257C234.236 141.928 233.217 142.347 231.998 142.513ZM241.949 141.156C240.953 141.292 240.073 141.123 239.308 140.65C238.561 140.175 238.115 139.405 237.97 138.34C237.86 137.533 238.171 136.738 238.904 135.956C239.635 135.156 240.861 134.464 242.583 133.879C242.851 133.79 243.153 133.697 243.489 133.598C243.824 133.483 244.175 133.365 244.543 133.245L244.266 131.209C244.106 130.042 243.849 129.246 243.494 128.822C243.153 128.378 242.683 128.198 242.082 128.28C241.669 128.336 241.362 128.518 241.159 128.825C240.954 129.116 240.861 129.592 240.881 130.254L240.869 130.545C240.935 131.288 240.829 131.853 240.549 132.241C240.27 132.629 239.889 132.856 239.409 132.922C238.962 132.983 238.574 132.896 238.245 132.661C237.915 132.426 237.719 132.076 237.656 131.613C237.559 130.908 237.719 130.283 238.134 129.737C238.567 129.188 239.17 128.738 239.945 128.388C240.719 128.037 241.578 127.797 242.523 127.668C244.052 127.46 245.28 127.677 246.207 128.32C247.149 128.944 247.735 130.098 247.965 131.781L248.742 137.474C248.847 138.247 249.26 138.584 249.982 138.486L250.548 138.408L250.808 138.583C250.538 139.039 250.221 139.406 249.856 139.683C249.509 139.958 248.983 140.144 248.279 140.24C247.524 140.343 246.899 140.253 246.406 139.971C245.927 139.668 245.579 139.235 245.362 138.67C244.922 139.29 244.454 139.834 243.958 140.304C243.477 140.755 242.808 141.039 241.949 141.156ZM243.306 139.37C243.649 139.323 243.957 139.203 244.228 139.008C244.513 138.794 244.839 138.487 245.204 138.088L244.614 133.76C244.447 133.818 244.28 133.875 244.112 133.933C243.945 133.991 243.753 134.052 243.534 134.117C242.772 134.431 242.185 134.87 241.772 135.433C241.374 135.977 241.231 136.662 241.343 137.486C241.439 138.19 241.675 138.7 242.051 139.016C242.424 139.315 242.842 139.433 243.306 139.37ZM251.418 139.47L251.383 139.213L251.73 139.061C252.307 138.807 252.551 138.345 252.459 137.675L251.359 129.612C251.308 129.234 251.21 128.967 251.066 128.812C250.92 128.64 250.671 128.542 250.318 128.521L249.918 128.47L249.882 128.213L254.084 126.118L254.377 126.34L254.793 127.858C255.322 127.243 255.941 126.713 256.649 126.266C257.358 125.819 258.082 125.546 258.82 125.445C259.954 125.29 260.863 125.481 261.549 126.018C262.251 126.551 262.689 127.454 262.863 128.725L263.875 136.144C263.966 136.814 264.35 137.19 265.026 137.273L265.268 137.318L265.304 137.576L259.224 138.405L259.189 138.148L259.51 137.999C260.085 137.728 260.328 137.266 260.239 136.614L259.118 128.396C258.968 127.297 258.343 126.822 257.244 126.972C256.489 127.075 255.716 127.566 254.926 128.443L256.121 137.202C256.212 137.872 256.57 138.251 257.195 138.341L257.437 138.387L257.472 138.644L251.418 139.47ZM271.947 136.67L271.912 136.412L272.288 136.282C272.949 135.999 273.232 135.506 273.136 134.802C273.069 134.181 272.989 133.536 272.898 132.866C272.804 132.179 272.722 131.578 272.652 131.063L271.77 124.597L270.327 124.794L270.289 124.51L270.69 124.377C271.361 124.163 271.733 123.683 271.806 122.939C272.03 121.246 272.706 119.921 273.835 118.962C274.964 118.003 276.413 117.403 278.182 117.162C279.247 117.017 280.145 117.13 280.878 117.502C281.626 117.855 282.047 118.375 282.141 119.062C282.204 119.526 282.109 119.915 281.854 120.23C281.614 120.525 281.254 120.705 280.773 120.771C280.258 120.841 279.826 120.751 279.477 120.501C279.126 120.234 278.809 119.902 278.527 119.503L277.78 118.45C277.629 118.243 277.462 118.108 277.279 118.046C277.095 117.984 276.909 118.027 276.719 118.175C275.488 119.025 275.034 120.828 275.358 123.583L280.845 122.834C281.36 122.764 281.864 122.607 282.355 122.365L282.724 122.184L283.098 122.422L283.509 126.013L284.005 129.645C284.07 130.126 284.139 130.694 284.211 131.349C284.3 132.002 284.395 132.636 284.497 133.252C284.59 133.939 284.978 134.341 285.658 134.458L285.846 134.485L285.884 134.768L279.83 135.594L279.795 135.337L280.039 135.198C280.681 134.901 280.954 134.409 280.861 133.722C280.791 133.084 280.7 132.414 280.587 131.712C280.491 131.008 280.413 130.441 280.355 130.012L280.119 128.286C280.049 127.771 279.965 127.222 279.869 126.641C279.787 126.04 279.708 125.464 279.633 124.915C279.558 124.365 279.487 123.911 279.421 123.553L275.428 124.098L276.31 130.564C276.378 131.062 276.45 131.656 276.527 132.345C276.618 133.015 276.715 133.658 276.816 134.273C276.912 134.978 277.316 135.369 278.026 135.447L278.533 135.509L278.568 135.766L271.947 136.67ZM286.916 134.628L286.88 134.37L287.227 134.218C287.805 133.964 288.048 133.502 287.957 132.832L286.856 124.769C286.805 124.391 286.707 124.125 286.564 123.969C286.418 123.797 286.168 123.7 285.815 123.678L285.415 123.627L285.38 123.37L289.581 121.275L289.874 121.497L290.291 123.015C290.819 122.4 291.438 121.87 292.147 121.423C292.856 120.977 293.579 120.703 294.318 120.602C295.451 120.448 296.361 120.638 297.046 121.175C297.749 121.709 298.187 122.611 298.36 123.882L299.372 131.301C299.464 131.971 299.847 132.347 300.523 132.43L300.766 132.476L300.801 132.733L294.721 133.563L294.686 133.305L295.007 133.156C295.582 132.885 295.825 132.424 295.736 131.771L294.615 123.553C294.465 122.454 293.841 121.979 292.742 122.129C291.986 122.232 291.213 122.723 290.423 123.6L291.618 132.359C291.71 133.029 292.067 133.409 292.692 133.498L292.934 133.544L292.97 133.802L286.916 134.628ZM307.323 132.237C306.31 132.375 305.369 132.276 304.501 131.94C303.63 131.586 302.89 130.97 302.281 130.091C301.686 129.192 301.286 127.996 301.083 126.502C300.876 124.991 300.973 123.709 301.372 122.658C301.768 121.589 302.371 120.754 303.182 120.154C303.99 119.536 304.909 119.157 305.939 119.017C306.54 118.935 307.124 118.916 307.69 118.962C308.256 119.007 308.77 119.12 309.232 119.302L308.775 115.953C308.726 115.593 308.63 115.335 308.486 115.179C308.359 115.022 308.111 114.933 307.741 114.914L307.238 114.877L307.202 114.62L311.736 112.846L312.051 113.04L312.44 116.66L314.159 129.258C314.206 129.601 314.305 129.876 314.455 130.083C314.604 130.273 314.847 130.388 315.185 130.43L315.427 130.475L315.462 130.733L311.096 131.617L310.738 130.722C310.316 131.094 309.818 131.416 309.242 131.687C308.684 131.955 308.044 132.139 307.323 132.237ZM308.687 131.08C309.408 130.982 310.04 130.677 310.583 130.165L309.188 119.938C308.496 119.613 307.815 119.496 307.145 119.587C306.321 119.699 305.683 120.276 305.23 121.318C304.775 122.342 304.687 123.876 304.965 125.92C305.244 127.963 305.716 129.369 306.38 130.135C307.042 130.885 307.811 131.2 308.687 131.08ZM322.212 129.812L322.177 129.555L322.523 129.402C322.838 129.272 323.041 129.096 323.133 128.873C323.242 128.648 323.282 128.363 323.253 128.017L322.153 119.954C322.101 119.576 322.003 119.309 321.86 119.154C321.714 118.981 321.464 118.884 321.111 118.862L320.711 118.812L320.676 118.554L324.877 116.459L325.17 116.682L325.615 118.405C326.104 117.761 326.683 117.193 327.35 116.699C328.035 116.203 328.772 115.902 329.562 115.794C330.387 115.681 331.071 115.763 331.616 116.039C332.159 116.297 332.607 116.761 332.961 117.43C333.544 116.703 334.197 116.106 334.921 115.64C335.659 115.155 336.398 114.861 337.136 114.761C338.355 114.594 339.288 114.764 339.935 115.271C340.598 115.775 341.016 116.654 341.187 117.908L342.216 125.456C342.308 126.126 342.674 126.504 343.316 126.592L343.61 126.63L343.645 126.888L337.694 127.7L337.659 127.442L337.906 127.33C338.218 127.182 338.421 126.997 338.513 126.775C338.622 126.55 338.653 126.266 338.606 125.922L337.531 118.039C337.433 117.318 337.237 116.846 336.944 116.624C336.649 116.384 336.218 116.303 335.651 116.38C335.205 116.441 334.781 116.604 334.38 116.869C333.993 117.114 333.595 117.465 333.185 117.924C333.309 118.187 333.401 118.48 333.463 118.804C333.542 119.126 333.606 119.467 333.655 119.828L334.565 126.5C334.674 127.167 335.04 127.546 335.665 127.636L335.907 127.681L335.943 127.939L329.966 128.754L329.931 128.497L330.277 128.344C330.59 128.197 330.793 128.02 330.887 127.815C330.997 127.59 331.028 127.306 330.981 126.963L329.909 119.105C329.815 118.418 329.62 117.947 329.322 117.69C329.042 117.431 328.601 117.342 328 117.424C327.605 117.478 327.224 117.635 326.857 117.895C326.488 118.138 326.115 118.477 325.737 118.914L326.914 127.544C327.006 128.214 327.364 128.593 327.988 128.683L328.23 128.729L328.266 128.986L322.212 129.812ZM349.375 113.091C350.491 112.939 351.476 113.04 352.33 113.396C353.18 113.735 353.866 114.271 354.386 115.005C354.921 115.719 355.256 116.575 355.392 117.571C355.418 117.76 355.436 117.958 355.447 118.167C355.456 118.358 355.445 118.534 355.414 118.696L347.737 119.743C348.008 121.596 348.517 122.891 349.265 123.629C350.027 124.347 351.044 124.619 352.315 124.446C353.174 124.329 353.851 124.096 354.345 123.749C354.84 123.401 355.283 122.93 355.674 122.334L355.964 122.531C355.56 123.548 354.948 124.384 354.128 125.038C353.324 125.69 352.305 126.1 351.068 126.269C349.849 126.435 348.732 126.325 347.717 125.939C346.699 125.535 345.858 124.881 345.192 123.974C344.526 123.068 344.1 121.936 343.915 120.58C343.723 119.171 343.869 117.936 344.354 116.872C344.837 115.792 345.524 114.928 346.415 114.282C347.324 113.633 348.31 113.236 349.375 113.091ZM349.368 113.617C348.87 113.685 348.462 113.898 348.143 114.256C347.84 114.595 347.638 115.165 347.537 115.966C347.451 116.747 347.494 117.835 347.667 119.228L352.072 118.627C351.989 116.732 351.736 115.393 351.314 114.611C350.893 113.829 350.244 113.497 349.368 113.617ZM368.267 123.923C367.167 124.073 366.271 123.915 365.578 123.45C364.902 122.982 364.482 122.147 364.318 120.945L363.116 112.135L361.338 112.377L361.303 112.12L361.907 111.932C362.423 111.739 362.855 111.506 363.202 111.231C363.567 110.954 363.912 110.6 364.239 110.171L366.031 107.538L366.289 107.503L366.704 111.12L369.589 110.727L369.659 111.242L366.748 111.639L368.013 120.913C368.095 121.514 368.286 121.952 368.586 122.226C368.903 122.498 369.268 122.605 369.68 122.549C370.041 122.5 370.347 122.371 370.598 122.161C370.847 121.935 371.088 121.648 371.32 121.302L371.613 121.524C371.349 122.155 370.94 122.683 370.386 123.109C369.832 123.534 369.125 123.806 368.267 123.923ZM372.705 122.924L372.67 122.666L372.965 122.521C373.555 122.23 373.805 121.759 373.716 121.106L371.84 107.35C371.79 106.989 371.694 106.731 371.55 106.576C371.407 106.42 371.157 106.323 370.802 106.284L370.402 106.234L370.366 105.976L374.749 104.25L375.193 104.425L375.586 108.072L376.025 111.292C376.558 110.712 377.145 110.203 377.785 109.766C378.44 109.309 379.188 109.024 380.03 108.909C381.146 108.756 382.074 108.954 382.813 109.5C383.57 110.044 384.038 110.977 384.218 112.3L385.209 119.564C385.256 119.908 385.363 120.173 385.528 120.361C385.694 120.548 385.955 120.67 386.313 120.726L386.529 120.775L386.564 121.033L380.536 121.855L380.501 121.598L380.8 121.478C381.39 121.188 381.639 120.708 381.548 120.038L380.444 111.949C380.351 111.262 380.166 110.806 379.89 110.581C379.632 110.354 379.211 110.28 378.627 110.36C378.249 110.411 377.847 110.545 377.422 110.76C376.994 110.959 376.573 111.27 376.158 111.694L377.382 120.659C377.473 121.328 377.841 121.716 378.485 121.82L378.698 121.844L378.733 122.101L372.705 122.924ZM392.294 107.236C393.41 107.083 394.395 107.185 395.248 107.541C396.099 107.88 396.785 108.416 397.305 109.15C397.84 109.864 398.175 110.719 398.311 111.715C398.337 111.904 398.355 112.103 398.366 112.311C398.374 112.503 398.364 112.679 398.333 112.841L390.656 113.888C390.926 115.741 391.435 117.036 392.183 117.773C392.946 118.491 393.963 118.764 395.234 118.59C396.093 118.473 396.769 118.241 397.264 117.894C397.759 117.546 398.202 117.075 398.593 116.479L398.883 116.676C398.479 117.693 397.867 118.529 397.047 119.183C396.243 119.835 395.223 120.245 393.987 120.414C392.768 120.58 391.65 120.47 390.636 120.084C389.618 119.68 388.777 119.025 388.111 118.119C387.445 117.213 387.019 116.081 386.834 114.724C386.642 113.316 386.788 112.08 387.273 111.017C387.755 109.937 388.442 109.073 389.334 108.427C390.242 107.778 391.229 107.381 392.294 107.236ZM392.287 107.761C391.789 107.829 391.381 108.042 391.062 108.401C390.759 108.74 390.556 109.31 390.456 110.11C390.37 110.892 390.413 111.979 390.586 113.373L394.991 112.772C394.907 110.876 394.655 109.538 394.233 108.755C393.812 107.973 393.163 107.642 392.287 107.761ZM400.628 119.114L400.593 118.856L400.965 118.701C401.295 118.551 401.505 118.365 401.597 118.142C401.707 117.917 401.739 117.642 401.695 117.315L400.594 109.252C400.543 108.874 400.437 108.609 400.276 108.456C400.13 108.283 399.881 108.186 399.528 108.164L399.127 108.114L399.092 107.856L403.319 105.758L403.612 105.98L404.146 108.164L404.174 108.37C404.349 107.856 404.598 107.376 404.922 106.93C405.261 106.464 405.645 106.07 406.073 105.749C406.519 105.426 406.974 105.233 407.437 105.17C408.09 105.081 408.613 105.193 409.005 105.507C409.398 105.821 409.632 106.252 409.707 106.802C409.787 107.386 409.677 107.864 409.378 108.237C409.094 108.591 408.72 108.8 408.256 108.863C407.535 108.961 406.85 108.687 406.202 108.041L406.144 107.996C405.939 107.779 405.724 107.678 405.498 107.691C405.27 107.687 405.078 107.818 404.922 108.084C404.772 108.262 404.651 108.471 404.562 108.711C404.487 108.931 404.417 109.185 404.351 109.474L405.332 116.662C405.425 117.349 405.784 117.737 406.409 117.827L407.265 117.946L407.3 118.204L400.628 119.114ZM416.319 103.958C417.436 103.806 418.421 103.907 419.274 104.263C420.125 104.602 420.81 105.138 421.33 105.872C421.865 106.586 422.2 107.442 422.336 108.438C422.362 108.627 422.38 108.825 422.391 109.034C422.4 109.225 422.389 109.401 422.359 109.563L414.682 110.61C414.952 112.463 415.461 113.758 416.209 114.496C416.972 115.214 417.988 115.486 419.259 115.313C420.118 115.196 420.795 114.963 421.29 114.616C421.785 114.268 422.228 113.797 422.619 113.201L422.908 113.398C422.504 114.415 421.892 115.251 421.072 115.905C420.269 116.557 419.249 116.967 418.012 117.136C416.793 117.302 415.676 117.192 414.661 116.806C413.644 116.402 412.802 115.748 412.136 114.841C411.47 113.935 411.045 112.803 410.86 111.447C410.668 110.038 410.814 108.803 411.299 107.739C411.781 106.659 412.468 105.795 413.359 105.149C414.268 104.5 415.255 104.103 416.319 103.958ZM416.312 104.484C415.814 104.552 415.406 104.765 415.088 105.123C414.784 105.462 414.582 106.032 414.481 106.833C414.395 107.614 414.439 108.702 414.611 110.095L419.017 109.494C418.933 107.599 418.68 106.26 418.259 105.478C417.837 104.695 417.188 104.364 416.312 104.484ZM426.079 98.0081C426.714 97.9214 427.24 98.0595 427.657 98.4225C428.072 98.7683 428.323 99.2675 428.412 99.9201C428.485 100.453 428.461 101.304 428.341 102.475C428.219 103.629 428.104 104.904 427.997 106.301L427.825 109.08L427.336 109.146L426.426 106.515C425.97 105.23 425.529 104.048 425.102 102.97C424.673 101.874 424.419 101.042 424.342 100.475C424.253 99.8228 424.362 99.2744 424.669 98.8302C424.973 98.3688 425.443 98.0948 426.079 98.0081ZM428.493 115.706C427.858 115.793 427.296 115.651 426.808 115.28C426.32 114.909 426.034 114.415 425.95 113.796C425.868 113.195 426.012 112.651 426.383 112.163C426.751 111.658 427.253 111.362 427.889 111.275C428.507 111.191 429.061 111.343 429.551 111.731C430.039 112.101 430.324 112.587 430.406 113.188C430.491 113.807 430.347 114.36 429.977 114.848C429.606 115.336 429.111 115.622 428.493 115.706Z" fill="black"/>
<path d="M444.551 10.501C443.723 10.4727 443.029 11.121 443.001 11.949L442.541 25.4411C442.512 26.2691 443.161 26.9631 443.989 26.9914C444.817 27.0196 445.511 26.3713 445.539 25.5434L445.948 13.5504L457.941 13.9594C458.769 13.9876 459.463 13.3393 459.491 12.5114C459.519 11.6834 458.871 10.9893 458.043 10.9611L444.551 10.501ZM343.454 211.499C386.278 212.82 431.203 183.503 455.732 143.634C480.316 103.677 484.618 52.7535 445.596 10.9762L443.404 13.024C481.281 53.5756 477.239 102.952 453.177 142.062C429.06 181.261 385.036 209.78 343.546 208.501L343.454 211.499Z" fill="black"/>
<path d="M49.2286 24.5002C50.0569 24.4898 50.7368 25.153 50.7471 25.9813L50.9154 39.4803C50.9257 40.3087 50.2626 40.9886 49.4342 40.9989C48.6059 41.0092 47.926 40.3461 47.9156 39.5177L47.7661 27.5186L35.767 27.6682C34.9386 27.6785 34.2588 27.0154 34.2484 26.187C34.2381 25.3586 34.9013 24.6788 35.7296 24.6684L49.2286 24.5002ZM105.44 150.87C70.5657 150.741 40.7564 135.287 27.4064 111.674C13.9735 87.9137 17.4792 56.4218 48.1735 24.9527L50.3211 27.0474C20.2909 57.8357 17.4124 87.9007 30.018 110.197C42.7065 132.641 71.3584 147.744 105.451 147.87L105.44 150.87Z" fill="black"/>
</svg>
