<svg width="159" height="101" viewBox="0 0 159 101" fill="none" xmlns="http://www.w3.org/2000/svg">
<g clip-path="url(#clip0_35_54)">
<path d="M59.874 0.315625C58.0592 1.2625 57.9606 1.71621 58.0395 8.30488L58.0987 13.7494L58.651 14.4596C59.4795 15.5643 59.8149 15.6629 62.616 15.7813L65.1805 15.8799L71.0393 34.916L76.9178 53.9522L76.9375 76.2432C76.9375 97.7846 76.9573 98.5539 77.3321 99.3627C77.845 100.527 78.6932 101 80.1924 101C80.9618 101 81.5535 100.882 81.8297 100.684C82.0664 100.527 83.7432 98.5539 85.558 96.3051C87.3729 94.0563 89.0891 91.9455 89.385 91.6102L89.8979 90.9789L93.4092 95.6738C95.3424 98.2383 97.1573 100.507 97.4532 100.684C98.1239 101.059 100.037 101.118 100.629 100.744C100.866 100.625 102.7 98.5934 104.713 96.2656C106.705 93.9379 108.421 92.0047 108.5 91.9652C108.579 91.9258 110.157 93.6815 112.011 95.8317C116.43 100.961 116.47 101 118.048 101C119.034 101 119.409 100.901 119.843 100.566C120.139 100.349 121.875 98.1397 123.729 95.6936C125.564 93.2475 127.142 91.2156 127.24 91.1762C127.319 91.1367 129.055 93.1686 131.087 95.6738C133.119 98.1791 135.052 100.408 135.387 100.625C136.236 101.138 137.972 101.138 138.82 100.605C139.175 100.408 139.609 99.9348 139.806 99.5797C140.141 98.9682 140.161 97.607 140.26 76.2432L140.358 53.5576L146.178 34.6793L151.997 15.7813H154.364C157.047 15.7813 157.777 15.5445 158.546 14.4004C159 13.7691 159 13.6508 159 7.93007C159 2.36718 158.98 2.09101 158.586 1.44004C158.349 1.08496 157.836 0.611524 157.402 0.394531C156.653 -2.98023e-08 156.002 0 108.559 0C65.3383 0 60.4067 0.0394531 59.874 0.315625ZM152.885 7.89062V9.46875H108.599H64.3125V7.89062V6.3125H108.599H152.885V7.89062ZM95.875 21.6401V27.4791L93.0739 31.2074L90.2924 34.9358L89.8387 34.482C89.5231 34.1467 76.1682 17.6553 74.9057 16.018C74.7676 15.8404 76.8586 15.7813 85.3016 15.7813H95.875V21.6401ZM114.813 21.5809V27.4002L111.755 30.951C110.058 32.9236 108.618 34.5215 108.539 34.5018C108.461 34.5018 107.001 32.8447 105.304 30.8524L102.188 27.2029V21.4822V15.7813H108.5H114.813V21.5809ZM142.193 16.1166C142.035 16.3139 138.544 20.6143 134.46 25.684C130.377 30.7734 126.984 34.916 126.944 34.916C126.885 34.916 125.564 33.1998 123.985 31.1088L121.125 27.2818V21.6598C121.125 18.5824 121.184 15.9785 121.263 15.9193C121.322 15.8404 126.136 15.7813 131.935 15.7813C141.976 15.7813 142.469 15.801 142.193 16.1166ZM139.096 36.3363C137.459 41.6822 136.038 46.2391 135.959 46.4363C135.821 46.7717 135.407 46.318 133.375 43.6154C132.054 41.8598 130.988 40.3014 131.028 40.1633C131.107 39.8674 141.917 26.4533 141.996 26.5322C142.035 26.5717 140.733 30.9707 139.096 36.3363ZM81.0012 33.6338C83.8024 37.1057 86.0907 40.0844 86.0907 40.2422C86.0907 40.7354 81.4155 46.8111 81.2774 46.5152C81.0998 46.2193 75.1621 26.907 75.1621 26.6901C75.1621 26.4336 75.7934 27.1832 81.0012 33.6338ZM101.971 36.652L104.377 39.4531L104.022 39.9266C103.292 40.8932 99.1299 45.7459 99.0116 45.7459C98.9524 45.7656 97.8674 44.4834 96.6049 42.925L94.3166 40.0844L96.7825 36.7901C98.1436 34.9752 99.3272 33.5746 99.4061 33.6535C99.485 33.7522 100.649 35.0936 101.971 36.652ZM120.415 36.8492C121.579 38.3879 122.565 39.7885 122.624 39.9463C122.743 40.2225 118.501 45.667 118.166 45.667C118.028 45.667 112.84 39.6899 112.84 39.532C112.84 39.4729 113.964 38.092 115.345 36.4942C117.278 34.2256 117.91 33.5943 118.087 33.7916C118.206 33.91 119.251 35.2908 120.415 36.8492ZM111.439 47.6988C112.86 49.3559 114.023 50.7959 114.023 50.8748C114.023 51.0721 108.697 57.6016 108.539 57.5818C108.362 57.5818 103.529 51.585 103.292 51.0918C103.174 50.8156 103.667 50.1055 105.857 47.5608C107.356 45.8248 108.638 44.444 108.717 44.5426C108.796 44.6215 110.019 46.0418 111.439 47.6988ZM92.6991 48.1328C93.784 49.494 94.6914 50.6578 94.6914 50.7367C94.6914 50.8156 93.2514 52.5318 91.5155 54.5834C89.7598 56.6152 88.3198 58.3117 88.3 58.3315C88.2606 58.3709 87.3334 57.3254 86.2287 56.0235C84.9465 54.5045 84.2561 53.5774 84.3547 53.4195C85.1043 52.1768 90.4305 45.3711 90.5489 45.4895C90.6278 45.5881 91.6141 46.7717 92.6991 48.1328ZM129.785 49.3559C131.442 51.5652 132.803 53.4195 132.823 53.4787C132.882 53.6563 128.956 58.2131 128.818 58.1539C128.739 58.1145 127.28 56.4772 125.583 54.4848C123.571 52.157 122.506 50.7565 122.585 50.5789C122.683 50.3027 126.629 45.3711 126.747 45.3711C126.787 45.3711 128.148 47.1662 129.785 49.3559ZM101.754 59.3572L104.515 62.7897L101.655 66.3602C100.057 68.3131 98.6959 70.0096 98.6368 70.0885C98.4789 70.2858 92.6202 63.5985 92.6202 63.2434C92.6202 62.9672 98.6762 55.8262 98.8537 55.8854C98.9327 55.9051 100.235 57.4635 101.754 59.3572ZM121.46 59.377C123.117 61.3102 124.498 62.9869 124.518 63.0856C124.557 63.1842 123.256 64.8412 121.618 66.7547C119.35 69.4375 118.62 70.1674 118.462 69.9899C118.324 69.8518 117.101 68.3131 115.7 66.5772C114.319 64.8412 113.057 63.2828 112.899 63.1053C112.662 62.8291 112.958 62.3754 115.444 59.2981C116.982 57.3846 118.304 55.8262 118.363 55.8459C118.423 55.8459 119.823 57.4438 121.46 59.377ZM83.8418 63.5195C83.4473 64.2494 83.25 64.1508 83.25 63.1842L83.2698 62.2373L83.6446 62.691C83.9405 63.0461 83.9799 63.2434 83.8418 63.5195ZM133.947 63.125C133.947 63.9535 133.77 64.1113 133.356 63.6182C133.139 63.3617 133.139 63.2236 133.356 62.8291C133.73 62.119 133.947 62.2176 133.947 63.125ZM111.558 71.5088C112.958 73.2447 114.181 74.7637 114.28 74.9018C114.398 75.0793 113.589 76.1643 111.617 78.4723C110.078 80.2871 108.717 81.8061 108.599 81.8258C108.283 81.8652 102.76 75.2963 102.878 75.0004C102.917 74.8623 104.219 73.1856 105.758 71.2918C108.007 68.5301 108.599 67.8791 108.796 68.0961C108.934 68.2342 110.177 69.7729 111.558 71.5088ZM91.4168 71.7652C93.0344 73.6393 94.2969 75.2766 94.2377 75.4147C94.1194 75.7106 90.1741 80.583 90.0557 80.583C89.9768 80.583 84.2364 72.9686 84.2364 72.8305C84.2364 72.6135 88.3 68.0961 88.3987 68.2145C88.4578 68.2934 89.819 69.8912 91.4168 71.7652ZM130.969 70.5027L132.981 72.8305L132.507 73.4617C132.251 73.7971 130.929 75.5527 129.568 77.3676L127.102 80.6619L125.564 78.7485C124.696 77.7029 123.709 76.4799 123.354 76.0262L122.703 75.2174L125.781 71.6272C127.477 69.6545 128.878 68.0567 128.917 68.0961C128.937 68.1356 129.864 69.2008 130.969 70.5027ZM101.477 83.5026C102.937 85.2188 104.2 86.6983 104.259 86.7969C104.338 86.935 101.734 90.1504 99.4061 92.7938C99.2877 92.9318 95.1846 87.7043 94.2969 86.2643C94.0405 85.8697 94.1786 85.6527 96.2696 83.0686C97.4926 81.5299 98.5776 80.3069 98.6565 80.3266C98.7354 80.366 100.018 81.7863 101.477 83.5026ZM120.888 83.0488C122.111 84.5678 123.098 85.85 123.098 85.9092C123.098 85.9684 121.934 87.5662 120.494 89.4797C118.442 92.2217 117.85 92.8727 117.673 92.6754C116.548 91.4326 112.84 87.0139 112.84 86.8955C112.84 86.6983 118.363 80.2871 118.541 80.2871C118.62 80.2871 119.685 81.5299 120.888 83.0488ZM84.769 84.1338L85.9723 85.7317L84.7887 87.1914C84.1377 88.0002 83.5262 88.7498 83.4276 88.8682C83.3289 88.9668 83.25 87.7043 83.25 85.6133C83.25 83.7195 83.3289 82.2598 83.4078 82.3584C83.5065 82.4768 84.118 83.2658 84.769 84.1338ZM133.947 85.7514C133.947 89.4994 134.085 89.3811 132.29 87.0928L131.205 85.7317L131.659 85.1201C131.896 84.8045 132.448 84.0549 132.862 83.4828C133.296 82.9305 133.711 82.457 133.789 82.457C133.868 82.457 133.947 83.9365 133.947 85.7514Z" fill="#002B4A"/>
<path d="M59 3H3C1.34315 3 0 4.34315 0 6V10C0 11.6569 1.34315 13 3 13H59C60.6569 13 62 11.6569 62 10V6C62 4.34315 60.6569 3 59 3Z" fill="#002B4A"/>
</g>
<defs>
<clipPath id="clip0_35_54">
<rect width="159" height="101" fill="white"/>
</clipPath>
</defs>
</svg>
