<svg width="1920" height="826" viewBox="0 0 1920 826" fill="none" xmlns="http://www.w3.org/2000/svg">
<g clip-path="url(#clip0_99_4)">
<path d="M1594.07 133.754C1581.98 140.775 1571.76 154.116 1569.14 166.606L1567.8 172.745L1561.93 171.553C1540.81 167.427 1519.31 177.473 1508.2 196.495C1496.85 215.919 1498.84 238.669 1513.44 256.417C1516.89 260.51 1524.44 265.573 1553.26 282.67L1588.88 303.666L1532.28 400.411L1475.81 497.234L1440.12 476.372C1411.14 459.543 1403.04 455.417 1397.79 454.406C1375.21 450.321 1354.45 459.721 1343.1 479.145C1331.83 498.434 1333.94 522.515 1348.37 539.173L1351.6 542.868L1346.92 547.044C1340.1 553.026 1333.43 565.211 1331.6 574.658C1328.72 590.506 1332.72 605.806 1343.12 618.297C1347.27 623.341 1351.85 626.57 1367.85 636.234L1387.55 647.885L1380.91 660.177C1372.96 674.852 1370.32 685.532 1371.88 696.701C1376.66 731.887 1410.51 751.756 1443.56 738.689C1453.94 734.615 1461.93 727.076 1470.81 712.951L1478.26 701.13L1498.03 712.647C1519.89 725.208 1526.96 727.559 1540.79 726.326C1561.61 724.516 1581.57 707.269 1585.86 687.304L1587.2 681.165L1592.96 682.385C1601.19 683.979 1609.85 683.305 1618.8 680.284C1647.93 670.4 1662.23 636.698 1649 609.055C1642.66 596.07 1640.22 594.098 1601.74 571.24L1566.12 550.244L1622.72 453.499L1679.19 356.676L1714.88 377.538C1743.86 394.367 1751.85 398.52 1757.21 399.505C1782.06 404.019 1806.15 390.91 1815.26 368.1C1822.44 350.104 1819.38 330.134 1807.17 315.504L1803.4 311.042L1808.08 306.866C1823.35 293.342 1828.59 267.455 1819.98 248.368C1814.28 235.669 1808.77 230.638 1787.15 217.676L1767.45 206.025L1773.42 195.045C1784.28 175.067 1785.84 164.558 1780.48 147.116C1777.75 137.956 1776.83 136.154 1771.47 129.95C1764.41 121.58 1757.98 116.905 1749.04 113.906C1730.12 107.388 1708.78 112.399 1694.61 126.658C1692.53 128.677 1687.61 135.412 1683.77 141.523L1676.74 152.78L1657.13 141.448C1643.92 133.779 1635.47 129.631 1631.26 128.688C1618.18 125.866 1604.64 127.814 1594.07 133.754ZM1622.02 160.501C1628.01 161.319 1782.24 251.762 1786.82 257.148C1791.02 261.952 1792.16 266.761 1790.91 273.219C1789.07 282.665 1778.07 289.968 1769.03 287.903C1765.04 286.905 1606.84 193.866 1604.29 191.016C1603.32 189.907 1601.92 186.752 1601.2 183.99C1597.76 170.815 1608.52 158.695 1622.02 160.501ZM1735.82 144.375C1742.8 145.955 1748.02 151.175 1749.88 158.293C1751.55 165.121 1750.61 168.433 1744.03 179.685L1738.45 189.09L1722.1 179.403L1705.67 169.849L1711.12 160.366C1714.17 155.142 1717.41 150.208 1718.41 149.266C1722.83 144.933 1729.72 143.132 1735.82 144.375ZM1555.89 203.893C1560.9 204.854 1780.37 333.86 1782.85 337.297C1792.63 351.313 1780.06 370.829 1763.67 367.054C1758.13 365.779 1541.6 238.5 1538.05 234.435C1527.04 221.764 1539.32 200.732 1555.89 203.893ZM1634.37 330.368L1650.42 339.792L1593.85 436.642L1537.36 533.359L1521.01 523.672L1504.58 514.119L1560.92 417.67C1591.9 364.623 1617.46 321.165 1617.78 321.082C1618.1 320.999 1625.54 325.184 1634.37 330.368ZM1391.33 486.856C1396.87 488.131 1613.4 615.41 1616.95 619.475C1627.64 631.777 1616.52 652.051 1599.99 650.355C1595.79 649.865 1376.16 521.126 1372.87 517.218C1361.8 503.882 1374.48 483.086 1391.33 486.856ZM1385.35 565.827C1389.08 566.668 1547.43 659.439 1550.26 662.446C1551.52 663.818 1553.08 667.158 1553.8 669.921C1557.24 683.095 1546.48 695.216 1532.98 693.409C1526.96 692.485 1372.52 602.098 1368.1 596.896C1359.16 586.068 1364.16 570.118 1377.63 566.599C1380.49 565.85 1383.91 565.523 1385.35 565.827ZM1433.27 674.637L1449.33 684.061L1443.88 693.544C1437.41 704.769 1434.7 707.406 1428.13 709.125C1420.82 711.037 1413.77 708.791 1408.36 702.828C1405.81 699.978 1403.58 691.478 1404.42 687.741C1405.03 684.859 1415.63 665.629 1416.69 665.352C1417.01 665.268 1424.44 669.454 1433.27 674.637Z" fill="white" fill-opacity="0.1"/>
</g>
<g clip-path="url(#clip1_99_4)">
<path d="M208.178 166.634C209.142 170.031 212.2 170.921 217.079 169.392L221.547 167.999L223.995 175.759L226.307 183.564L221.828 185.416C216.666 187.492 215.171 189.5 216.409 192.807C217.641 196.343 220.067 197.137 225.083 195.564L229.551 194.17L230.988 198.624L232.426 203.079L242.716 208.412L252.917 213.698L275.905 206.14L298.756 198.626L304.013 188.484C309.174 178.524 309.222 178.433 307.91 174.392C307.147 172.142 306.836 169.894 307.12 169.346C307.404 168.798 309.42 167.756 311.699 167.083C316.667 165.601 318.456 162.587 316.455 159C314.671 155.873 312.328 155.354 307.171 157.202L303.155 158.598L300.665 150.7L298.263 142.849L303.105 140.954C308.768 138.788 310.404 136.507 308.625 133.15C306.851 129.565 305.724 129.329 300.03 130.898L294.93 132.196L293.587 127.559L292.202 122.785L282.717 117.869L273.322 112.999L249.65 120.783L226.114 128.522L220.905 138.573C215.744 148.532 215.744 148.532 216.955 152.985L218.303 157.393L213.735 159.198C208.798 161.276 207.12 163.42 208.178 166.634Z" fill="white" fill-opacity="0.1"/>
<path d="M301.002 356.153L340.138 484.117L343.269 481.799C351.326 475.891 363.367 471.931 373.051 472.082L376.899 472.105L338.137 343.639L299.285 215.127L280.813 221.201C270.687 224.531 262.245 227.458 262.103 227.732C261.961 228.006 279.475 285.766 301.002 356.153Z" fill="white" fill-opacity="0.1"/>
<path d="M243.935 460.57C243.304 464.416 243.031 470.417 243.316 473.811C244.312 485.686 252.673 506.131 263.681 523.659C274.737 541.096 278.57 551.66 279.272 566.513C279.821 578.157 277.902 590.84 273.473 604.424C268.26 620.615 266.466 629.77 265.884 643.378C265.244 657.535 266.546 667.946 270.158 678.28C282.601 714.286 311.356 733.709 353.435 734.653C375.561 735.109 396.008 731.797 426.817 722.728C460.405 712.896 478.666 704.162 502.053 687.074C518.814 674.665 527.013 666.511 534.258 654.502C550.343 628.066 549.98 594.379 533.397 567.239C524.579 552.932 517.115 544.775 495.886 526.818C477.189 510.985 465.481 494.369 463.347 480.745C462.747 477.304 462.135 468.409 461.807 460.937C460.845 435.634 455.373 411.586 448.093 401.322C435.464 383.417 409.362 374.642 375.852 377.096L365.647 377.95L381.029 427.997C396.147 477.676 396.363 478.136 400.032 480.037C405.4 482.82 412.828 490.61 416.829 497.784C425.31 512.959 425.318 530.466 416.889 546.73C412.396 555.181 408.997 559.33 401.719 564.831C386.01 576.743 366.279 578.455 349.009 569.505C325.386 557.262 315.814 530.393 325.773 504.607L328.035 498.709L312.954 449.396L297.914 400.222L292.089 403.578C267.323 417.633 246.853 441.798 243.935 460.57ZM406.24 632.548C444.737 619.814 450.021 618.379 452.527 619.678C456.643 621.811 457.996 625.99 455.913 630.01C454.255 633.208 452.061 634.157 410.374 647.789C363.487 663.13 363.576 663.176 360.649 656.559C359.57 654.261 359.696 652.704 361.022 650.145C362.679 646.947 365.053 646.091 406.24 632.548Z" fill="white" fill-opacity="0.1"/>
<path d="M338.385 517.287C336.713 527.084 339.246 537.09 345.532 545.332C350.896 552.285 361.044 557.892 369.139 558.262C384.244 558.904 396.032 552.148 402.988 538.946C409.476 526.428 408.394 512.306 400.135 501.303C394.728 494.212 383.775 488.187 375.633 487.909C368.307 487.589 357.865 490.871 351.924 495.326C345.935 499.872 339.589 510.145 338.385 517.287Z" fill="white" fill-opacity="0.1"/>
</g>
<defs>
<clipPath id="clip0_99_4">
<rect width="561.048" height="562.251" fill="white" transform="translate(1235 225.91) rotate(-14.6488)"/>
</clipPath>
<clipPath id="clip1_99_4">
<rect width="526.903" height="516.013" fill="white" transform="translate(0 564.808) rotate(-62.6036)"/>
</clipPath>
</defs>
</svg>
