<svg width="164" height="137" viewBox="0 0 164 137" fill="none" xmlns="http://www.w3.org/2000/svg">
<path d="M42.5001 80.7921C63.6482 80.7921 80.7922 63.6481 80.7922 42.5C80.7922 21.3519 63.6482 4.20792 42.5001 4.20792C21.352 4.20792 4.20801 21.3519 4.20801 42.5C4.20801 63.6481 21.352 80.7921 42.5001 80.7921Z" fill="#F2923A" fill-opacity="0.8"/>
<path d="M39.5117 4.4326C23.4082 5.64452 9.51272 17.332 5.54492 32.9707C4.63184 36.5732 4.41602 38.4824 4.41602 42.5C4.41602 47.2979 5.01367 51.0166 6.47461 55.2002C7.20508 57.2753 9.23046 61.3594 10.459 63.2519C19.1748 76.5331 34.7969 83.041 50.3194 79.8535C60.1475 77.8281 68.9297 71.8018 74.541 63.2519C75.8027 61.3261 77.6455 57.6074 78.459 55.3662C79.1894 53.3242 79.9199 50.3359 80.3017 47.8955C80.7002 45.3721 80.7002 39.6279 80.3017 37.1045C79.2226 30.1152 76.5332 23.9726 72.25 18.5937C64.4639 8.84858 52.0625 3.48632 39.5117 4.4326ZM46.9492 6.65721L48.4766 6.85643V7.6201C48.4766 9.44627 47.8955 12.9492 47.1983 15.2734C46.7666 16.7675 45.5048 19.6396 45.3389 19.5401C44.4756 19.0586 41.1553 17.5479 39.7109 17C34.4814 14.958 29.6172 13.9785 23.0762 13.6465L20.835 13.5302L22.8272 12.2354C30.0654 7.5371 38.5488 5.57811 46.9492 6.65721ZM52.5274 7.80272C57.292 9.11427 62.6377 12.0527 66.4892 15.5058L67.3193 16.2529L61.7246 21.8476L56.1465 27.4424L55.0009 26.3965C53.4571 24.9687 51.2324 23.2588 49.1406 21.8808C48.1777 21.2334 47.3809 20.6523 47.3477 20.5859C47.3144 20.5029 47.5303 19.9883 47.8125 19.4238C49.041 16.9834 50.1699 12.6338 50.3858 9.41311C50.5352 7.5039 50.585 7.27147 50.9336 7.37108C51.083 7.40429 51.8134 7.6035 52.5274 7.80272ZM28.6709 16.2529C32.207 16.7841 35.3115 17.5976 38.5156 18.793C40.5078 19.5401 44.1601 21.25 44.1601 21.416C44.1601 21.4824 43.8447 21.8974 43.4629 22.3457C40.6572 25.5332 37.5694 27.0937 31.46 28.3886C22.8105 30.2315 21.0176 30.7461 17.4814 32.456C13.7627 34.249 11.2061 36.0918 8.23438 39.0966L6.42481 40.9229L6.54102 39.3789C7.13867 31.4101 10.6914 23.4746 16.2696 17.6972C17.1328 16.8008 17.9961 16.0039 18.1787 15.9209C18.793 15.6386 26.2803 15.8711 28.6709 16.2529ZM70.1582 19.291C72.6485 22.2627 75.0723 26.4297 76.3506 29.8828C76.9814 31.6425 77.7285 34.2158 77.6123 34.332C77.5791 34.3818 76.7324 34.4815 75.7529 34.5644C72.2334 34.8466 68.6973 35.7432 65.875 37.0547C65.0615 37.4365 64.3808 37.7021 64.3477 37.669C64.3144 37.6357 63.8994 37.0049 63.418 36.2744C61.7744 33.751 60.0478 31.5263 58.4541 29.833L57.541 28.8701L63.0859 23.3252C66.1406 20.2705 68.6973 17.7636 68.7637 17.7636C68.8134 17.7636 69.4443 18.4609 70.1582 19.291ZM49.1406 24.4043C51 25.7324 52.4444 26.8613 53.7392 28.0566L54.6689 28.9199L35.461 48.1113L16.253 67.3193L15.5059 66.4893C10.8408 61.3261 7.73633 54.5361 6.74024 47.3476C6.3418 44.542 6.3584 44.459 7.25489 43.2802C9.97753 39.7276 14.0947 36.3574 18.1289 34.3984C21.2002 32.9043 23.7071 32.1406 30.0488 30.8125C34.8633 29.7998 36.9384 29.1855 38.997 28.2226C41.6367 26.9609 44.0605 25.0683 45.4219 23.2256L46.0195 22.3955L46.7998 22.8437C47.2148 23.0927 48.2774 23.7901 49.1406 24.4043ZM56.9931 31.3105C58.3877 32.8379 60.0478 34.9795 61.3926 37.0049L62.6543 38.8974L62.0898 39.3291C59.5 41.2715 57.3418 44.2763 56.0469 47.6963C55.4658 49.2568 55.0673 50.8008 54.2041 54.8682C52.6269 62.3886 51.6973 65.1943 49.5556 68.8135C47.7129 71.9511 45.123 74.956 42.2344 77.2969L40.6738 78.5752L39.3789 78.4589C34.8467 78.0605 30.7627 76.8984 26.4795 74.7901C23.292 73.2295 20.9678 71.669 18.3447 69.3447L17.6806 68.7471L36.8555 49.5722C47.3975 39.0136 56.0469 30.3808 56.0801 30.3808C56.1133 30.3808 56.5283 30.7959 56.9931 31.3105ZM78.3262 38.1338C78.6748 41.1719 78.7246 42.749 78.542 44.9902C77.9941 51.5146 76.1016 57.1094 72.665 62.3222L71.4697 64.1152L71.3535 61.4091C71.0381 54.1045 69.2285 47.082 66.0078 40.707L65.4267 39.5449L66.8877 38.8808C69.6269 37.6026 73.8438 36.6562 77.2139 36.5566L78.1436 36.5234L78.3262 38.1338ZM64.6298 42.7822C67.7509 49.3232 69.2285 55.9638 69.2285 63.5175V66.8545L67.5186 68.5146C62.9199 72.9971 57.209 76.1182 50.8672 77.6123C49.1572 78.0273 45.7705 78.5254 44.7246 78.5254H44.1436L45.9531 76.7324C47.9785 74.7402 49.1738 73.2959 50.5186 71.2206C53.2246 67.0371 54.6025 63.2354 56.2129 55.4492C57.4414 49.4893 58.2217 47.1816 59.832 44.7744C60.6455 43.5293 63.2022 40.8398 63.5508 40.8398C63.6338 40.8398 64.1152 41.7197 64.6298 42.7822Z" fill="black" fill-opacity="0.8"/>
<path d="M76.2107 75.6182C86.5546 81.3655 108.621 100.261 114.137 129.866" stroke="#E7F0F5" stroke-width="3" stroke-linecap="round"/>
<path d="M90.1545 41.257C101.615 38.9371 130.171 39.6297 152.716 60.9594" stroke="#E7F0F5" stroke-width="3" stroke-linecap="round"/>
<path d="M85.9183 59.8993C101.907 62.6225 135.548 74.6966 142.207 101.207" stroke="#E7F0F5" stroke-width="3" stroke-linecap="round"/>
</svg>
